<svg xmlns="http://www.w3.org/2000/svg" viewBox="0 0 1220 720" font-family="system-ui, Segoe UI, sans-serif">
<rect width="100%" height="100%" fill="#fbfaf7"/>
<rect x="60.0" y="60.0" width="380.0" height="600.0" fill="#fbfaf7"/>
<text x="250.0" y="356.0" font-size="19" text-anchor="middle" fill="#2a2a28">Sala-comedor</text>
<text x="250.0" y="380.0" font-size="16" text-anchor="middle" fill="#6b6a64">22,8 m²</text>
<rect x="440.0" y="60.0" width="220.0" height="280.0" fill="#fbfaf7"/>
<text x="550.0" y="196.0" font-size="19" text-anchor="middle" fill="#2a2a28">Cocina</text>
<text x="550.0" y="220.0" font-size="16" text-anchor="middle" fill="#6b6a64">6,2 m²</text>
<rect x="440.0" y="340.0" width="450.0" height="100.0" fill="#fbfaf7"/>
<rect x="440.0" y="440.0" width="220.0" height="220.0" fill="#eef1f3"/>
<text x="550.0" y="546.0" font-size="19" text-anchor="middle" fill="#2a2a28">Baño</text>
<text x="550.0" y="570.0" font-size="16" text-anchor="middle" fill="#6b6a64">4,8 m²</text>
<rect x="660.0" y="60.0" width="230.0" height="280.0" fill="#f5efe6"/>
<text x="775.0" y="196.0" font-size="19" text-anchor="middle" fill="#2a2a28">Dormitorio 2</text>
<text x="775.0" y="220.0" font-size="16" text-anchor="middle" fill="#6b6a64">6,4 m²</text>
<rect x="660.0" y="440.0" width="230.0" height="220.0" fill="#f5efe6"/>
<text x="775.0" y="546.0" font-size="19" text-anchor="middle" fill="#2a2a28">Dormitorio 3</text>
<text x="775.0" y="570.0" font-size="16" text-anchor="middle" fill="#6b6a64">5,1 m²</text>
<rect x="890.0" y="60.0" width="270.0" height="420.0" fill="#f5efe6"/>
<text x="1025.0" y="266.0" font-size="19" text-anchor="middle" fill="#2a2a28">Dormitorio principal</text>
<text x="1025.0" y="290.0" font-size="16" text-anchor="middle" fill="#6b6a64">11,3 m²</text>
<rect x="890.0" y="480.0" width="270.0" height="180.0" fill="#eef1f3"/>
<text x="1025.0" y="566.0" font-size="19" text-anchor="middle" fill="#2a2a28">Baño principal</text>
<text x="1025.0" y="590.0" font-size="16" text-anchor="middle" fill="#6b6a64">4,9 m²</text>
<rect x="47.5" y="60.0" width="25.0" height="50.0" fill="#1c1c1a"/>
<rect x="47.5" y="610.0" width="25.0" height="50.0" fill="#1c1c1a"/>
<line x1="53.8" y1="110.0" x2="53.8" y2="610.0" stroke="#1c1c1a" stroke-width="2"/>
<line x1="66.2" y1="110.0" x2="66.2" y2="610.0" stroke="#1c1c1a" stroke-width="2"/>
<rect x="60.0" y="47.5" width="60.0" height="25.0" fill="#1c1c1a"/>
<rect x="280.0" y="47.5" width="440.0" height="25.0" fill="#1c1c1a"/>
<rect x="820.0" y="47.5" width="140.0" height="25.0" fill="#1c1c1a"/>
<rect x="1090.0" y="47.5" width="70.0" height="25.0" fill="#1c1c1a"/>
<line x1="120.0" y1="53.8" x2="280.0" y2="53.8" stroke="#1c1c1a" stroke-width="2"/>
<line x1="120.0" y1="66.2" x2="280.0" y2="66.2" stroke="#1c1c1a" stroke-width="2"/>
<line x1="960.0" y1="53.8" x2="1090.0" y2="53.8" stroke="#1c1c1a" stroke-width="2"/>
<line x1="960.0" y1="66.2" x2="1090.0" y2="66.2" stroke="#1c1c1a" stroke-width="2"/>
<line x1="720.0" y1="53.8" x2="820.0" y2="53.8" stroke="#1c1c1a" stroke-width="2"/>
<line x1="720.0" y1="66.2" x2="820.0" y2="66.2" stroke="#1c1c1a" stroke-width="2"/>
<rect x="60.0" y="650.0" width="270.0" height="20.0" fill="#1c1c1a"/>
<rect x="420.0" y="650.0" width="300.0" height="20.0" fill="#1c1c1a"/>
<rect x="820.0" y="650.0" width="340.0" height="20.0" fill="#1c1c1a"/>
<line x1="330.0" y1="660.0" x2="330.0" y2="570.0" stroke="#1c1c1a" stroke-width="2.5"/>
<path d="M 330.0 570.0 A 90.0 90.0 0 0 0 420.0 660.0" fill="none" stroke="#1c1c1a" stroke-width="1" stroke-dasharray="4 4"/>
<line x1="720.0" y1="655.0" x2="820.0" y2="655.0" stroke="#1c1c1a" stroke-width="2"/>
<line x1="720.0" y1="665.0" x2="820.0" y2="665.0" stroke="#1c1c1a" stroke-width="2"/>
<rect x="1150.0" y="60.0" width="20.0" height="600.0" fill="#1c1c1a"/>
<rect x="434.0" y="440.0" width="12.0" height="220.0" fill="#1c1c1a"/>
<rect x="440.0" y="334.0" width="220.0" height="12.0" fill="#1c1c1a"/>
<rect x="654.0" y="60.0" width="12.0" height="280.0" fill="#1c1c1a"/>
<rect x="440.0" y="434.0" width="35.0" height="12.0" fill="#1c1c1a"/>
<rect x="545.0" y="434.0" width="115.0" height="12.0" fill="#1c1c1a"/>
<line x1="475.0" y1="440.0" x2="475.0" y2="370.0" stroke="#1c1c1a" stroke-width="2.5"/>
<path d="M 475.0 370.0 A 70.0 70.0 0 0 0 545.0 440.0" fill="none" stroke="#1c1c1a" stroke-width="1" stroke-dasharray="4 4"/>
<rect x="654.0" y="440.0" width="12.0" height="220.0" fill="#1c1c1a"/>
<rect x="660.0" y="334.0" width="30.0" height="12.0" fill="#1c1c1a"/>
<rect x="770.0" y="334.0" width="120.0" height="12.0" fill="#1c1c1a"/>
<line x1="690.0" y1="340.0" x2="690.0" y2="260.0" stroke="#1c1c1a" stroke-width="2.5"/>
<path d="M 690.0 260.0 A 80.0 80.0 0 0 0 770.0 340.0" fill="none" stroke="#1c1c1a" stroke-width="1" stroke-dasharray="4 4"/>
<rect x="660.0" y="434.0" width="30.0" height="12.0" fill="#1c1c1a"/>
<rect x="770.0" y="434.0" width="120.0" height="12.0" fill="#1c1c1a"/>
<line x1="690.0" y1="440.0" x2="690.0" y2="360.0" stroke="#1c1c1a" stroke-width="2.5"/>
<path d="M 690.0 360.0 A 80.0 80.0 0 0 0 770.0 440.0" fill="none" stroke="#1c1c1a" stroke-width="1" stroke-dasharray="4 4"/>
<rect x="884.0" y="60.0" width="12.0" height="290.0" fill="#1c1c1a"/>
<rect x="884.0" y="430.0" width="12.0" height="230.0" fill="#1c1c1a"/>
<line x1="890.0" y1="350.0" x2="970.0" y2="350.0" stroke="#1c1c1a" stroke-width="2.5"/>
<path d="M 970.0 350.0 A 80.0 80.0 0 0 1 890.0 430.0" fill="none" stroke="#1c1c1a" stroke-width="1" stroke-dasharray="4 4"/>
<rect x="890.0" y="474.0" width="35.0" height="12.0" fill="#1c1c1a"/>
<rect x="995.0" y="474.0" width="165.0" height="12.0" fill="#1c1c1a"/>
<line x1="925.0" y1="480.0" x2="925.0" y2="410.0" stroke="#1c1c1a" stroke-width="2.5"/>
<path d="M 925.0 410.0 A 70.0 70.0 0 0 0 995.0 480.0" fill="none" stroke="#1c1c1a" stroke-width="1" stroke-dasharray="4 4"/>
<text x="46" y="360" font-size="15" fill="#6b6a64" text-anchor="middle" transform="rotate(-90 46 360)">FACHADA · VENTANAL</text>
<line x1="1060.0" y1="698.0" x2="1160.0" y2="698.0" stroke="#1c1c1a" stroke-width="3"/>
<text x="1110.0" y="690.0" font-size="14" text-anchor="middle" fill="#6b6a64">1 m</text>
<text x="60" y="34" font-size="22" font-weight="600" fill="#1c1c1a">Tipo A</text>
</svg>