<?xml version="1.0" encoding="UTF-8"?>
<svg id="Capa_2" data-name="Capa 2" xmlns="http://www.w3.org/2000/svg" viewBox="0 0 908.96 1041.11">
  <defs>
    <style>
      .cls-1 {
        letter-spacing: .02em;
      }

      .cls-2, .cls-3 {
        fill: #fc65aa;
      }

      .cls-4 {
        fill: #fff;
      }

      .cls-5 {
        letter-spacing: .04em;
      }

      .cls-6 {
        letter-spacing: .07em;
      }

      .cls-7 {
        letter-spacing: .06em;
      }

      .cls-3 {
        font-family: Naste-Light, Naste;
        font-size: 102.94px;
        font-weight: 300;
      }

      .cls-8 {
        fill: #0d1a3c;
      }

      .cls-9 {
        letter-spacing: .02em;
      }

      .cls-10 {
        fill: #8b218e;
      }
    </style>
  </defs>
  <g id="Capa_1-2" data-name="Capa 1">
    <g>
      <path class="cls-4" d="M706.43,523.77c-7.99-13.18-19.62-24.27-33.14-31.91,1.38-1.68,1.79-2.04,2.38-3,2.31-3.74,4.42-7.6,6.39-11.53.98-1.97,2-3.91,2.92-5.9.27-.58,1.39-2.94,1.69-3.73-3.2.42-21.1,2.51-24.18,2.51-8.07,0-21.97-5.6-31.14-12.83-8.4-6.44-13.75-17.39-14.32-29.54-.79-12.17,3.32-25.55,11.58-37.66l.2-.29c2.83-4.4,5.79-8.67,8.91-13.19,4.79-6.92,9.75-14.08,14.18-21.7,10.27-16.58,14.65-32.69,13.03-47.67-.91-10.08-4.27-18.73-7.51-27.1-2.15-5.53-4.17-10.76-5.22-15.8-1.02-5.09-.15-10.78,2.46-16.04l.31-.64c8.47-17.99,17.23-36.59,20.47-57.43,4.7-29.08-1.19-59.73-16.06-83.93-12.96-21.78-33.03-38.9-56.52-48.23-1.04-.44-2.12-.83-3.2-1.22-.7-.25-1.61-.58-2.1-.8-16.08-16.97-37.29-30.24-63.03-39.43C508.15,7.23,480.89,1.72,453.49.31c-3.88-.21-7.82-.31-11.72-.31-30.24,0-60.89,6.3-88.55,18.18-29.38,12.44-54.61,30.69-72.98,52.79-18.95,22.8-31.45,49.48-42.13,74.91-16.03,38.17-29.28,76.18-40.13,108.32-2.67,7.91-5.38,15.81-8.09,23.71-9.3,27.09-18.91,55.1-26.7,83.4-.77,2.81-1.57,5.63-2.36,8.44-4.45,15.78-9.06,32.09-10.57,49.27-1.83,20.83.09,42.24,5.69,63.63,8.54,32.64,25.32,65.22,48.53,94.2,26.59,33.21,61.15,57.76,94.58,81.51l.54.38c19.8,13.57,43.09,28.92,68.84,39.32,23.59,9.33,47,15.08,69.46,17.09,7.02.7,14.27,1.05,21.53,1.05,19.75,0,40.55-2.59,61.8-7.7l10.17-2.45-.24-10.46c-.36-15.83-3.11-31.91-8.1-47.6,1.01.59,2.04,1.22,3.11,1.87,6.44,3.92,14.44,8.77,24.67,9.34,1.37.14,2.76.21,4.14.21.43,0,.86,0,1.29-.02-.05.17-.09.34-.13.52-3.89,15.73.47,33.47,11.67,47.46l10.48,13.09,10.04-13.44c1.25-1.68,4.61-2.8,8.5-4.1,3.85-1.28,8.2-2.74,12.46-5.35,9.69-5.55,16.91-15.06,20.26-26.21,4.97,2.92,10.57,4.99,17,5.41,1.3.14,2.64.2,3.98.2,7.53,0,14.09-2.13,19.87-4.01,3.39-1.1,6.6-2.15,9.47-2.57l5.15-.75,3.2-4.1c13.18-16.89,23.01-37.53,28.48-59.94,6.73-30.18,3.11-59.2-10.29-81.85Z"/>
      <g>
        <path class="cls-10" d="M597.8,259.81c-1.5.26-2.98.34-4.49.31-2.31-.08-4.62-.39-6.9-.78-2.15-.36-4.28-.73-6.43-1.09-4.31-.75-8.59-1.48-12.87-2.33-.05,0-.1,0-.16-.03-5.16-1.01-10.32-2.1-15.46-3.29-5.14-1.19-10.25-2.46-15.36-3.84-.6-.16-1.22-.31-1.84-.47-.29-.1-.6-.18-.91-.26-.18-.05-.7-.1-.83-.23,9.52,9.99,20.81,19.77,34.94,21.87,11.41,2.31,23.71-1.69,31.65-10.17-.21.23-1.04.26-1.35.31ZM608.2,219.5c-5.19-4.2-11.96-5.55-18.24-7.26-9.13-2.13-18.55-4.44-28.02-3.42-16.21,1.53-30.35,10.71-43.22,20.03,5.97-1.56,11.57-4.36,17.54-5.94,10.66-2.88,22-4.41,32.95-2.1,6.59,1.35,13.07,3.29,19.22,6.02,4.18,1.82,8.02,4.75,12.74,5.03,5.99.62,10.92-7.57,7.03-12.35Z"/>
        <path class="cls-8" d="M612.58,366.28c0,.39-.03.8-.08,1.19-.05.16-.1.29-.16.42-.05.16-.13.29-.18.42-1.53,3.22-4.95,4.51-8.2,5.97.29-.08.54-.16.8-.26,1.01-.34,2.02-.75,2.93-1.27,1.82-.99,3.55-2.36,4.49-4.2.05-.16.13-.29.18-.42.05-.13.1-.29.16-.42.05-.36.08-.73.08-1.06,0-.13,0-.26-.03-.36ZM615.18,334.94c.16.13.34.23.52.36.29.16.57.31.86.47-.47-.26-.93-.54-1.37-.83ZM614.66,334.58c-.05-.03-.34-.31-.42-.31l-.03.03c.29.23.6.44.96.65-.18-.13-.34-.23-.52-.36ZM619.2,337.9c-.29,2.26-.1,4.77-1.53,6.67-2.18,3.4-5.79,5.78-7.55,9.47-.03.31-.03.6-.03.88,0-.26.03-.49.05-.75,1.76-3.71,5.4-6.1,7.6-9.52.73-.99,1.09-2.15,1.27-3.35.13-.75.23-1.5.29-2.31.03-.36.03-.75-.1-1.09Z"/>
        <path class="cls-10" d="M695.34,530.49c-9.55-15.75-24.85-27.81-42.42-33.49-13.13-4.85-27.42-5.66-40.29-11.28-10.66-4.33-20.42-11.78-25.99-22-6.9-12.58-6.87-28.46-.73-41.33-.86,10.43.73,21.12,5.68,30.43,7.16,14.58,21.04,25.01,36.27,30.04,14.29,4.25,30.38,2.85,43.37-4.54-16.47,2.15-34.4-.1-47.78-10.66-11.99-9.18-18.68-24.07-19.38-38.99-1.06-16.32,4.7-32.45,13.8-45.81,7.47-11.62,15.95-22.6,22.88-34.55,7.34-11.8,12.76-25.68,11.23-39.82-1.32-14.61-9.57-27.29-12.53-41.51-1.66-8.25-.16-16.89,3.55-24.36,8.22-17.46,16.6-35.15,19.59-54.37,4.15-25.71-.73-52.97-14.4-75.23-11.47-19.27-29.42-34.61-50.3-42.86-3.32-1.43-7.16-2.13-9.65-4.95-15.9-16.84-36.5-28.56-58.14-36.29-24.83-8.92-50.98-14.29-77.31-15.64-32.25-1.71-64.88,4.12-94.53,16.86-25.73,10.9-50.12,27.55-68.06,49.13-17.61,21.18-29.55,46.42-40.15,71.65-14.8,35.23-27.58,71.25-39.79,107.45-11.9,35.26-24.66,70.4-34.58,106.41-5.01,18.2-10.85,36.49-12.51,55.41-1.74,19.84.28,39.97,5.32,59.22,8.49,32.43,25.2,63.26,46.11,89.37,25.55,31.91,59.25,55.8,92.33,79.3,21.01,14.4,42.57,28.38,66.28,37.95,21.12,8.35,43.3,14.22,65.97,16.24,26.46,2.62,53.23-.16,79.02-6.36-.54-23.84-6.87-47.45-17.59-68.75-9.7-18.39-22.78-34.92-37.69-49.37-15.36-15.33-32.97-28.15-48.49-43.37-13.23-12.82-23.94-28.46-30.01-45.94-9.65-27.58-9.94-57.75-4.59-86.26,2.84-17.73,7.47-27.52,10.35-33.88,6.67-13.67,16.14-25.79,26.05-37.23,3.84-5.99,9.55-10.32,14.22-15.57,19.4-22.7,38.65-46.05,52.01-72.95,2.57-5.81,4.83-11.73,7.6-17.43-30.12,13.28-61.3,23.79-92.46,34.35-19.77,7.11-40.11,15.18-55.26,30.3,3.48-4.95,8.15-8.9,12.76-12.76,16.91-13.31,37.2-21.25,57.07-28.93,46.72-16.21,94.14-33.39,134.38-62.91,11.67-8.28,21.4-18.86,31.49-28.95-3.94,10.43-21.53,28.72-32.32,38.39,18.42-11.8,24.96-21.12,33-31.57,8.48-11.13,10.66-18.83,15.54-29.34,7.81,8.77,14.14,18.94,17.61,30.17,6.87,22.13,5.91,45.94,1.37,68.41-1.87,9.36-2.96,18.99-1.95,28.51,1.37,11.83,7.24,22.54,13.96,32.14,2.78,4.12,6.36,7.68,8.51,12.22,1.61,3.11-.65,6.51-2.91,8.59-3.97,3.79-9.78,3.89-14.37,6.51-3.76,3.55-3.71,9.34-2.26,13.98.08,0,.36.29.42.31.18.13.34.23.52.36.44.29.91.57,1.43.86.39.23.83.47,1.25.73.13.05.26.13.39.23.13.08.29.16.39.29.05.03.08.05.13.08.05.05.1.13.16.18.16.18.23.39.29.6.13.34.13.73.1,1.09-.05.8-.16,1.56-.29,2.31-.18,1.19-.54,2.36-1.27,3.35-2.2,3.42-5.84,5.81-7.6,9.52-.03.26-.05.49-.05.75-.03.29,0,.6.03.88,0,.18.03.39.05.6.05.34.1.67.18,1.01.16.67.34,1.32.54,2,.18.65.42,1.3.65,1.97.23.65.44,1.32.6,1.97.08.34.16.65.23.99.03.23.08.44.1.67.03.18.05.39.08.6s.03.44.03.67c.03.1.03.23.03.36,0,.34-.03.7-.08,1.06-.05.13-.1.29-.16.42-.05.13-.13.26-.18.42-.93,1.84-2.67,3.22-4.49,4.2-.91.52-1.92.93-2.93,1.27-.26.1-.52.18-.86.29-1.45.65-2.88,1.37-4.05,2.28-3.53,5.24-2.1,11.88-2.67,17.8.18,7.19-4.51,14.09-11.23,16.58-10.53,4.64-22.34,3.06-33.26.93-14.99-3.29-29.73-7.89-44-13.54-1.53-.83-3.61-.99-4.54.83-12.63,16.34-21.4,35.54-26.62,55.46-3.71,14.58-5.42,31.21,2.59,44.7,2.18,3.22,4.77,8.61,9.55,7.19,8.56-2.1,16.84-5.32,25.55-6.8,17.43-3.94,36.21-2.57,52.4,5.21,15.67,7.68,29.31,20.86,34.79,37.72,4.62,12.69,3.16,26.38,2.98,39.54-.1,1.14-.21,2.31-.36,3.45-.23,2.15-.54,4.31-.86,6.43-.16,1.14-.36,2.28-.49,3.4-.16,1.14-.36,2.26-.67,3.35-.03.13-.08.26-.1.39-.62,1.95-1.71,3.81-3.32,5.11-.05.03-.7.57-.7.6-3.63-3.48-3.01-22.83-25.35-44.08,15.54,21.92,18.34,40.99,20.36,45.06.03.08.08.16.1.21-6.3-1.14-11.75-4.75-17.87-6.43.44.52,1.32,1.58,1.76,2.1-6.23-.96-12.37-2.49-18.6-3.32.78.18,1.56.36,2.31.57,10.07,2.41,19.79,6.23,29.03,10.95,1.4.73,2.49,1.97,3.06,3.45.1.34.21.62.26.78-8.2,1.53-40.44.05-54.76,10.22,11.65-1.58,22.72-5.29,52.07-6.25-.99,5.63-3.63,10.77-7.6,14.84.1,3.4-.39,6.77-1.74,9.88,5.16-4.07,4.85-3.74,6.1-4.93,5.14-3.55,6.95-4.75,13.31-5.58,1.45,2.31-2.13,17.87-10.2,38.26,13.07-17.48,12.5-36.24,13.26-37.93.47-.03,1.43-.03,1.89-.03,3.97,5.58,7.81,11.47,10.32,17.85.65,1.4.67,1.25,1.17,2.62.31,1.04.49,1.87.62,2.62,1.14-2.18,3.84-4.75,5.66-5.66-3.11-6.43-6.64-12.66-10.77-18.52,2.78-.7,20.1-4.57,50.38,15.62-22.88-22.44-46.38-19.66-48.59-19.85.16-1.76.16-2.05.54-3.79,5.29-3.32,11.36-5.14,17.17-7.39,7.21-2.83,15.05-1.69,22.62-1.87,3.53-7.68,7.68-15.15,9.62-23.45,3.04-10.17,2.85-20.88,2.28-31.39,9.68,13.26,15.59,29.26,15.98,45.74.75,14.24-2.67,28.33-7.86,41.53.75,3.61,1.61,7.24,2.54,10.82,12.56-16.08,21.22-35.02,26.05-54.79,5.37-24.07,4.07-50.66-8.72-72.3ZM639.04,602.79c-7.63,3.89-14.61,8.9-21.87,13.36-2.02,1.58-7.16,1.22-5.53-2.46.18-1.35-.05-.39.34-2.02,3.04-9.16,9.39-16.86,17.02-22.67.29-.23.6-.44.91-.67.31-.23.62-.44.93-.65,4.31-3.04,8.74-5.45,10.4-6.33-1.89.57-6.46,2-12.06,4.93-.42.21-.83.44-1.27.67-8.79,6.2-15.07,15.07-20.08,24.44-2.54-9.11-1.53-19.15,2.59-27.63,4.07-7.24,11.67-12.79,20.18-13.2,9.62-1.48,18.47,3.48,26.8,7.55-4.02,9.47-8.77,19.72-18.37,24.7Z"/>
        <path class="cls-10" d="M657.41,578.1c-4.02,9.47-8.77,19.72-18.37,24.7-7.63,3.89-14.61,8.9-21.87,13.36-2.02,1.58-7.16,1.22-5.53-2.46.18-1.35-.05-.39.34-2.02,3.04-9.16,9.39-16.86,17.02-22.67.29-.23.6-.44.91-.67.31-.23.62-.44.93-.65,4.31-3.04,8.74-5.45,10.4-6.33-1.89.57-6.46,2-12.06,4.93-.42.21-.83.44-1.27.67-8.79,6.2-15.07,15.07-20.08,24.44-2.54-9.11-1.53-19.15,2.59-27.63,4.07-7.24,11.67-12.79,20.18-13.2,9.62-1.48,18.47,3.48,26.8,7.55Z"/>
        <path class="cls-2" d="M604.33,571.04c-2-9.99-9-18.81-18.21-23.11-9.91-4.88-21.43-3.42-31.49-7.7,2.08,12.3-3.29,24.67.03,36.86,3.06,10.27,11.99,17.25,20.88,22.41l.62.18c6.12,1.69,11.57,5.29,17.87,6.43-.03-.05-.08-.13-.1-.21-2.02-4.07-4.83-23.14-20.36-45.06,22.34,21.25,21.71,40.6,25.35,44.08,0-.03.65-.57.7-.6,1.61-1.3,2.7-3.16,3.32-5.11.03-.13.08-.26.1-.39.31-1.09.52-2.21.67-3.35.13-1.12.34-2.26.49-3.4.31-2.13.62-4.28.86-6.43.16-1.14.26-2.31.36-3.45-.7-3.68-.05-7.52-1.09-11.15ZM630.61,570.55c-8.51.42-16.11,5.97-20.18,13.2-4.12,8.48-5.14,18.52-2.59,27.63,5.01-9.36,11.28-18.24,20.08-24.44.44-.23.86-.47,1.27-.67,5.6-2.93,10.17-4.36,12.06-4.93-1.66.88-6.1,3.29-10.4,6.33-.31.21-.62.42-.93.65-.31.23-.62.44-.91.67-7.63,5.81-13.98,13.52-17.02,22.67-.39,1.63-.16.67-.34,2.02-1.63,3.68,3.5,4.05,5.53,2.46,7.26-4.46,14.24-9.47,21.87-13.36,9.6-4.98,14.35-15.23,18.37-24.7-8.33-4.07-17.17-9.03-26.8-7.55ZM593.98,614.21c-.05-.16-.16-.44-.26-.78-.57-1.48-1.66-2.72-3.06-3.45-9.24-4.72-18.96-8.53-29.03-10.95-.75-.21-1.53-.39-2.31-.57-8.09-1.4-16.6.86-23.14,5.73-9.57,6.95-15.15,17.64-21.79,27.14,13.98.83,23.37,14.35,37.46,14.94,12.09,1.35,23.3-5.34,31.83-13.26,3.97-4.07,6.62-9.21,7.6-14.84-29.34.96-40.42,4.67-52.07,6.25,14.32-10.17,46.57-8.69,54.76-10.22ZM675.47,646.76c-2.83-8.12-4.7-16.99-10.48-23.66-2.65-3.27-6.33-5.42-9.86-7.6l.31-1.17c-7.57.18-15.41-.96-22.62,1.87-5.81,2.26-11.88,4.07-17.17,7.39-.39,1.74-.39,2.02-.54,3.79,2.2.18,25.71-2.59,48.59,19.85-30.27-20.18-47.6-16.32-50.38-15.62,4.12,5.86,7.65,12.09,10.77,18.52,6.38,6.56,13.98,13.2,23.58,13.72,10.66,1.22,20.08-4.77,30.35-6.28-.93-3.58-1.79-7.21-2.54-10.82ZM618.42,655.79c-.13-.75-.31-1.58-.62-2.62-.49-1.37-.52-1.22-1.17-2.62-2.52-6.38-6.36-12.27-10.32-17.85-.47,0-1.43,0-1.89.03-.75,1.69-.18,20.44-13.26,37.93,8.07-20.39,11.65-35.96,10.2-38.26-6.36.83-8.17,2.02-13.31,5.58-1.25,1.19-.93.86-6.1,4.93-5.55,5.81-11.18,12.11-13.2,20.13-3.14,12.69,1.19,26.23,9.21,36.24,5.97-7.99,16.81-7.89,24.75-12.84,9.73-5.47,15.38-16.47,15.93-27.39.03-1.22,0-2.15-.21-3.24Z"/>
        <path class="cls-2" d="M619.3,338.99c-.05.8-.16,1.56-.29,2.31-.18,1.19-.54,2.36-1.27,3.35-2.2,3.42-5.84,5.81-7.6,9.52-.03.26-.05.49-.05.75-.03.29,0,.6.03.88,0,.18.03.39.05.6.05.34.1.67.18,1.01.13.67.34,1.32.54,2,.18.65.42,1.3.65,1.97.21.65.42,1.3.6,1.97.08.34.16.65.23.99.03.23.08.44.1.67.03.18.05.39.08.6s.03.44.03.67c.03.1.03.23.03.36,0,.34-.03.7-.08,1.06-.05.13-.1.29-.16.42-.05.13-.13.26-.18.42-.93,1.84-2.67,3.22-4.49,4.2-.91.52-1.92.93-2.93,1.27-.26.1-.52.18-.8.26,0,.03-.03.03-.05.03-.23.08-.47.13-.7.18-.78.1-1.56-.08-2.28-.29-.78-.21-1.5-.44-2.26-.67-.1-.03-.18-.05-.26-.08-.34-.13-.67-.23-1.01-.36-1.58-.57-3.14-1.22-4.62-1.95-3.01-1.48-5.86-3.32-8.41-5.5-4.2-3.66-9.05-6.8-11.83-11.73,5.45-.18,11.28.73,16.34-1.87,2.31-1.19,4.49-2.54,6.56-4.15,2.08-1.58,4.02-3.32,5.97-5.06,2.18-1.97,4.33-3.94,6.64-5.73.91-.7,1.79-1.35,2.83-1.84,1.04-.49,2.2-.75,3.32-.96l.03-.03c.08,0,.36.29.42.31.18.13.34.23.52.36.44.29.91.57,1.37.83,0,.03.03.03.05.03.16.1.34.23.52.34.23.13.47.26.73.39.13.05.26.13.39.23.13.08.26.18.39.29.05.03.08.05.13.08.05.05.1.13.16.18.16.18.23.39.29.6.13.34.13.73.1,1.09Z"/>
      </g>
      <g>
        <path class="cls-10" d="M53.46,808.29l52.71-52.33c5.23-5.15,8.49-8.66,9.78-10.53,1.29-1.87,1.93-3.93,1.93-6.17,0-4.07-1.99-7.14-5.98-9.22-2.08-1-5.57-1.74-10.47-2.24v-2.87h53.71v2.87c-3.66.33-6.71.93-9.16,1.81-2.45.87-5.13,2.35-8.04,4.42-3.24,2.33-8.81,7.27-16.7,14.83l-40.37,38.75,57.44,73.27,7.1,9.1c5.23,6.48,10.67,11.55,16.32,15.2,3.4,2.24,6.4,3.84,8.97,4.8,2.57.96,5.81,1.68,9.72,2.18v2.87h-82.36v-2.87c6.23-.5,10.72-1.54,13.46-3.11,2.74-1.58,4.11-3.9,4.11-6.98,0-3.32-1.7-7.56-5.11-12.71-1.66-2.49-4.78-6.81-9.35-12.96-4.57-6.15-8.43-11.13-11.59-14.95l-28.04-34.77-8.1,7.98v41.24c0,8.47.48,14.77,1.43,18.88.95,4.11,2.72,7.5,5.29,10.16,2.24,2.33,4.84,4.05,7.79,5.17,2.95,1.12,6.83,1.81,11.65,2.06v2.87H0v-2.87c4.82-.25,8.7-.93,11.65-2.06,2.95-1.12,5.54-2.84,7.79-5.17,2.66-2.66,4.44-6.02,5.36-10.09.91-4.07,1.37-10.38,1.37-18.94v-91.84c0-8.56-.46-14.87-1.37-18.94-.91-4.07-2.7-7.43-5.36-10.09-2.24-2.41-4.86-4.15-7.85-5.23-2.99-1.08-6.85-1.74-11.59-1.99v-2.87h79.62v2.87c-4.73.25-8.58.92-11.53,1.99-2.95,1.08-5.59,2.83-7.91,5.23-2.58,2.66-4.34,6.04-5.29,10.16-.96,4.11-1.43,10.4-1.43,18.88v44.24Z"/>
        <path class="cls-10" d="M221.15,806.4c2.99-5.23,6.35-9.17,10.09-11.83,6.89-4.9,14.74-7.35,23.55-7.35,5.4,0,9.51,1.21,12.34,3.61,2.57,2.16,3.86,4.81,3.86,7.97,0,2.32-.77,4.23-2.3,5.73-1.54,1.49-3.51,2.24-5.92,2.24-2.82,0-5.28-1.16-7.35-3.48l-3.86-4.23c-3.07-3.24-6.69-4.85-10.84-4.85-5.65,0-10.05,3.65-13.21,10.95-3.16,7.3-4.73,17.46-4.73,30.49v23.27l.12,9.46c0,5.64.33,9.77,1,12.38.66,2.61,1.95,4.79,3.86,6.53,2.32,2.24,6.6,3.94,12.83,5.1v2.62h-55.08v-2.62c4.98-.66,8.56-1.59,10.72-2.79,2.16-1.2,3.9-3.25,5.23-6.14.91-1.9,1.56-4.77,1.93-8.62.37-3.84.56-9.4.56-16.67v-30.62c0-8.51-.21-14.48-.62-17.91-.42-3.43-1.33-6.22-2.74-8.37-1.41-2.31-3.11-3.99-5.11-5.02-1.99-1.03-4.86-1.67-8.6-1.92v-2.62l32.12-4.49c1.43,7.46,2.14,13.85,2.14,19.17Z"/>
        <path class="cls-10" d="M294.48,827.23c-.33,4.07-.5,7.02-.5,8.85,0,7.23,1.06,14.29,3.17,21.18,2.11,6.9,4.99,12.63,8.63,17.2,3.73,4.65,8.34,8.31,13.85,10.96,5.51,2.66,11.28,3.99,17.32,3.99,4.47,0,8.71-.75,12.73-2.24,4.01-1.5,7.35-3.57,10-6.23,2.98-2.91,5.55-7.56,7.7-13.96l2.62.87c-2.16,9.72-6.79,17.05-13.89,21.99-7.1,4.94-16.55,7.41-28.35,7.41-10.22,0-18.98-1.62-26.29-4.86-7.31-3.24-13.5-8.22-18.57-14.95-7.06-9.39-10.59-20.93-10.59-34.64,0-18.69,6.69-33.35,20.06-43.99,9.72-7.73,20.81-11.59,33.27-11.59,6.65,0,12.79,1.18,18.44,3.55,5.65,2.37,10.42,5.79,14.33,10.28,6.06,6.98,9.1,15.7,9.1,26.17h-73.02ZM348.8,822.37c-.58-8.31-2.11-14.7-4.59-19.19-2.23-4.07-5.21-7.29-8.93-9.66-3.72-2.37-7.69-3.55-11.91-3.55-7.11,0-13.34,3.07-18.67,9.22-5.33,6.15-8.5,13.87-9.49,23.18h53.58Z"/>
        <path class="cls-10" d="M484.65,882.93l2.12,1.25c-2.99,8.72-9.84,13.08-20.56,13.08-5.91,0-10.82-1.45-14.73-4.36-2.58-1.91-5.24-5.23-7.99-9.97-5.58,4.98-9.78,8.27-12.6,9.84-5.41,2.99-11.69,4.49-18.84,4.49-9.15,0-16.41-2.2-21.78-6.6-5.37-4.4-8.05-10.34-8.05-17.82,0-6.89,2.2-12.67,6.6-17.32,2.49-2.57,5.36-4.63,8.6-6.17,3.24-1.54,7.93-3.09,14.08-4.67,7.23-1.83,12.56-3.36,16.01-4.61,3.45-1.25,6.33-2.74,8.66-4.49,2.66-1.91,4.49-4.15,5.48-6.73,1-2.57,1.49-6.15,1.49-10.72,0-9.72-1.83-16.82-5.48-21.31-1.66-2.08-3.8-3.74-6.42-4.98-2.62-1.25-5.34-1.87-8.16-1.87-3.41,0-6.44.87-9.1,2.62-2.66,1.74-4.65,4.15-5.98,7.23l-3.11,7.23c-1.66,3.91-4.65,5.86-8.97,5.86-2.82,0-5.19-.93-7.1-2.8-1.91-1.87-2.87-4.21-2.87-7.04,0-4.24,2.99-7.81,8.99-10.72,3.24-1.49,7.26-2.72,12.04-3.68,4.78-.95,9.46-1.43,14.04-1.43,5.16,0,10.52.67,16.1,1.99,5.57,1.33,10.23,3.03,13.98,5.11,5.41,3.07,8.78,7.06,10.11,11.96.67,2.49,1,6.69,1,12.58v46.11c0,7.81.33,13.13,1,15.95,1.41,5.9,4.82,8.85,10.22,8.85,2.57,0,4.59-.45,6.04-1.37,1.45-.91,3.18-2.74,5.17-5.48ZM443.41,833.83c-4.47,3.74-9.4,7.02-14.78,9.84-6.04,3.24-10.23,5.69-12.55,7.35-2.32,1.66-4.43,3.66-6.33,5.98-3.89,4.82-5.84,10.43-5.84,16.82,0,5.48,1.51,10.01,4.53,13.58,3.02,3.57,6.85,5.36,11.49,5.36,4.06,0,7.89-1.27,11.49-3.8,3.6-2.53,6.31-5.92,8.14-10.16,2.57-5.56,3.85-13.62,3.85-24.17v-20.81Z"/>
        <path class="cls-10" d="M516.06,789.1h31.65v4.73h-31.65v72.52c0,8.72,1.49,14.95,4.47,18.69,1.57,2.08,3.64,3.7,6.21,4.86,2.57,1.16,5.34,1.74,8.32,1.74,3.72,0,6.83-.77,9.31-2.31,2.49-1.54,5.22-4.34,8.2-8.41l1.86,1.62c-2.74,4.98-6.59,8.68-11.53,11.09-4.95,2.41-11.11,3.61-18.5,3.61-9.8,0-16.95-1.91-21.43-5.73-2.41-1.99-3.99-4.38-4.73-7.17-.75-2.78-1.12-7.79-1.12-15.01v-75.51h-13.33v-1.99c5.4-1.74,10.39-5.11,14.96-10.09,2.76-3.07,4.97-6.13,6.65-9.16,1.67-3.03,3.26-6.96,4.77-11.78l1.25-4.11h4.64v32.4Z"/>
        <path class="cls-10" d="M556.43,791.71l35.89-4.49v71.77l.13,9.44c0,5.63.33,9.75,1,12.35.66,2.61,1.95,4.78,3.86,6.52,2.32,2.23,6.6,3.93,12.83,5.09v2.62h-55.08v-2.62c4.98-.66,8.56-1.59,10.72-2.79,2.16-1.2,3.9-3.25,5.23-6.14.91-1.9,1.56-4.77,1.93-8.62.37-3.84.56-9.4.56-16.67v-30.62c0-8.51-.21-14.48-.62-17.91-.42-3.43-1.33-6.22-2.74-8.37-1.41-2.31-3.11-3.99-5.11-5.02-1.99-1.03-4.86-1.67-8.6-1.92v-2.62ZM582.41,765.86c-3.26,0-5.95-1.04-8.08-3.11-2.13-2.08-3.19-4.69-3.19-7.85s1.08-5.67,3.26-7.79c2.17-2.12,4.84-3.18,8.02-3.18s5.85,1.06,8.02,3.18c2.17,2.12,3.26,4.72,3.26,7.79s-1.06,5.77-3.19,7.85c-2.13,2.08-4.82,3.11-8.08,3.11Z"/>
        <path class="cls-10" d="M605.47,789.1h48.35v2.74c-3.66.75-6.15,1.58-7.48,2.49-2.66,1.66-3.99,4.32-3.99,7.97,0,2.24.41,4.85,1.24,7.84.83,2.99,2.36,7.34,4.59,13.07l20.09,51.15,20.31-53.27c2.99-7.88,4.49-13.73,4.49-17.55,0-4.15-1.29-7.18-3.86-9.09-1.33-1-3.78-1.87-7.35-2.61v-2.74h34.39v2.74c-4.65,1.16-8.39,3.24-11.21,6.22-3.57,3.73-7.69,11.58-12.34,23.52l-28.78,73.43h-6.73l-31.27-77.16c-4.82-11.87-8.27-19.04-10.34-21.53-1.16-1.33-2.45-2.3-3.86-2.92-1.41-.62-3.49-1.14-6.23-1.56v-2.74Z"/>
        <path class="cls-10" d="M709.38,842.43c0-13.46,4.99-25.46,14.95-36.01,12.13-12.79,26.62-19.19,43.49-19.19s31.32,6.4,43.36,19.19c9.97,10.64,14.95,22.68,14.95,36.14s-4.73,25.13-14.2,35.51c-11.63,12.79-26.33,19.19-44.11,19.19s-32.52-6.4-44.24-19.19c-4.57-4.98-8.08-10.55-10.53-16.7-2.45-6.15-3.68-12.46-3.68-18.94ZM732.06,841c0,14.44,3.24,26.68,9.72,36.71,7.31,11.2,16.24,16.8,26.79,16.8,4.49,0,8.85-1.25,13.08-3.73s7.89-5.97,10.96-10.46c3.24-4.64,5.86-10.47,7.85-17.49,1.99-7.01,2.99-13.79,2.99-20.35s-1.06-13.67-3.18-20.6c-2.12-6.93-4.97-12.88-8.53-17.86-6.81-9.37-15.16-14.06-25.05-14.06s-17.49,4.94-24.3,14.81c-6.9,9.88-10.34,21.95-10.34,36.22Z"/>
        <path class="cls-10" d="M840.8,895.01v-35.26h1.99c2.32,8.64,5.22,15.53,8.7,20.69,6.38,9.39,13.84,14.08,22.37,14.08,5.22,0,9.74-1.58,13.55-4.74,4.14-3.49,6.21-8.43,6.21-14.83,0-5.23-1.49-9.8-4.47-13.71-1.66-2.08-3.75-3.99-6.28-5.73-2.53-1.74-6.78-4.19-12.74-7.35-10.45-5.56-17.4-10.22-20.89-13.96-4.97-5.32-7.46-11.46-7.46-18.44,0-7.48,2.49-13.91,7.48-19.31,5.73-6.15,13.33-9.22,22.8-9.22,4.24,0,8.18.75,11.84,2.24l4.24,1.87c1.33.5,2.49.75,3.49.75,1.58,0,3.07-1.25,4.49-3.74h2.49l1.37,28.29h-2.62c-.91-3.99-1.88-7.18-2.92-9.6-1.04-2.41-2.51-4.73-4.41-6.98-2.57-3.16-5.55-5.63-8.95-7.41-3.39-1.78-6.75-2.68-10.06-2.68-4.64,0-8.6,1.68-11.87,5.05-3.27,3.36-4.9,7.5-4.9,12.4,0,4.07,1.47,7.75,4.41,11.03,2.94,3.28,7.48,6.29,13.61,9.03l13.18,5.98c7.87,3.57,13.76,8.02,17.66,13.33,3.89,5.32,5.84,11.59,5.84,18.82,0,8.72-2.82,15.95-8.47,21.68-6.48,6.65-14.79,9.97-24.92,9.97-5.48,0-11.05-1.08-16.7-3.24-3.66-1.41-5.86-2.22-6.6-2.43-.75-.21-1.7-.31-2.87-.31-2.91,0-5.11,1.25-6.6,3.74h-1.99Z"/>
      </g>
      <path class="cls-4" d="M162.8,410.2c-.05.08-.05.13-.05.13v-.03l.05-.1Z"/>
      <path class="cls-4" d="M246.96,158.87c-1.82,4.46-3.66,8.9-5.53,13.33,1.87-4.67,3.71-9.13,5.53-13.33Z"/>
      <path class="cls-4" d="M458.02,663.1c-7-12.32-15.62-23.79-25.97-33.49-19.72-19.48-43.09-34.74-66.77-48.87-19.3-11.6-39.28-23.37-53.49-41.27-12.76-15.41-19.9-35.33-19.92-55.36-.6-25.76,9.91-50.38,24.13-71.37,24.05-35,55.85-63.51,85.35-93.7,11.78-12.06,23.81-24.02,34.19-37.36-6.3,9.83-14.27,18.42-21.84,27.24-17.12,19.33-35.07,37.88-52.45,56.97-15.46,17.23-30.72,34.97-41.87,55.41-10.04,17.87-15.72,38.58-14.03,59.17,1.45,22.36,12.14,43.37,27.03,59.85,15.69,17.46,35.54,30.3,54.24,44.18,28.51,21.19,55.41,46.41,71.42,78.6Z"/>
      <path class="cls-4" d="M393.27,294.1c-38.81,33.98-80.76,74.22-111.32,126.47,17.95-43.53,54.01-86.08,111.32-126.47Z"/>
      <path class="cls-4" d="M244.19,520.1c.32-10.23-2.09-25.57-3.24-35.91-1.2-11.85-1.58-24.29-2.04-36.17-1.52-58.66,3.61-125.04,30.02-178.28,27-54.67,71.63-90.28,125.55-116.46,35.07-17.52,72.2-30.13,104.54-52.31,9.92-6.75,19.53-14.03,29.06-21.34-8.8,8.22-17.87,16.17-27.36,23.67-28.53,22.59-62.38,36.71-94.46,53.27-54.37,27.53-100.36,62.28-128.27,117.72-25.94,51.9-32.48,116.29-34,173.73-.28,11.96-.53,24.04-.18,35.97.46,11.98,1.73,24.14.39,36.12h0Z"/>
      <path class="cls-10" d="M425.96,423.01c-28.28,0-51.28-23-51.28-51.28s23-51.28,51.28-51.28,51.28,23,51.28,51.28-23,51.28-51.28,51.28ZM425.96,330.83c-22.55,0-40.9,18.35-40.9,40.9s18.35,40.9,40.9,40.9,40.9-18.35,40.9-40.9-18.35-40.9-40.9-40.9Z"/>
      <circle class="cls-10" cx="425.96" cy="332" r="9.52"/>
      <text class="cls-3" transform="translate(88.61 1012.7) scale(.99 1)"><tspan class="cls-7" x="0" y="0">S</tspan><tspan class="cls-6" x="68.35" y="0">A</tspan><tspan class="cls-1" x="145.66" y="0">L</tspan><tspan class="cls-6" x="206.81" y="0">ÓN &amp; S</tspan><tspan class="cls-9" x="598.39" y="0">P</tspan><tspan class="cls-5" x="669" y="0">A</tspan></text>
    </g>
  </g>
</svg>

