<?xml version="1.0" encoding="UTF-8"?>
<svg id="Capa_2" data-name="Capa 2" xmlns="http://www.w3.org/2000/svg" viewBox="0 0 976.72 408.4">
  <defs>
    <style>
      .cls-1 {
        fill: #fff;
      }
    </style>
  </defs>
  <g id="Capa_1-2" data-name="Capa 1">
    <g>
      <path class="cls-1" d="M22.8,360.42c0,13.05,10.58,23.63,23.63,23.63s23.63-10.58,23.63-23.63-10.58-23.63-23.63-23.63-23.63,10.58-23.63,23.63Z"/>
      <path class="cls-1" d="M314.54,397.03c-5.75-2.88-10.96-8.97-15.63-18.31-11.89-23.78-18.22-49.85-25.52-75.27-8.91-30.99-19.08-68.81-49.56-85.47-7.24-3.96-15.44-6.91-24.55-8.9,8.63-1.33,16.81-3.4,24.55-6.17,6.79-2.43,13.24-5.38,19.36-8.92,13.1-7.53,23.5-17.95,31.22-31.22,4.6-7.92,7.98-16.25,9.87-25.24,4.78-22.71.52-47.82-12.28-67.25-9.34-14.18-23.7-25.32-43.09-33.38-1.66-.7-3.34-1.35-5.08-1.95-4.19-1.56-8.61-2.91-13.26-4.07-4.69-1.22-9.63-2.22-14.78-3.07-.85-.13-1.7-.27-2.55-.39-9.11-1.39-18.93-2.22-29.47-2.51-.81-.04-1.64-.06-2.49-.06h-7.89v10.67h7.89c.83.04,1.66.1,2.49.17,3.36.29,6.62.93,9.76,1.83,8.5,2.45,16.33,7.07,22.59,13.32,6.38,6.37,9.73,14.12,11.68,22.94,3.46,15.67,3.86,32.47,3.86,48.46,0,10.11.7,20.41-.91,30.42-4.02,25.03-22.95,57.9-51.87,57.9h-16.29v8.26c6.3,0,12.82-.18,18.94,1.5,10.23,2.8,14.59,15.24,18.13,24,4.23,10.46,7.34,21.33,10.44,32.17,5.09,17.84,10.04,35.72,15.14,53.57,7.91,27.67,20.01,61.97,50.31,71.01,10.23,3.07,21.98,4.59,35.28,4.59h45.23v-4.32c-8.61,0-15.8-1.43-21.54-4.3Z"/>
      <path class="cls-1" d="M60.22,212.46c5.18,3.91,11.71,5.97,18.89,5.97v-8.79c-5.26,0-9.96-1.45-13.61-4.19-9.52-7.16-16.46-17.44-19.55-28.95L9.43,40.28c-1.5-5.6-.34-11.45,3.19-16.06,3.53-4.61,8.88-7.25,14.69-7.25h32.82c1.79,4.77,6.36,8.18,11.74,8.18,6.93,0,12.58-5.64,12.58-12.58S78.82,0,71.88,0c-5.38,0-9.95,3.42-11.74,8.18H27.32c-8.56,0-16.46,3.9-21.67,10.69C.44,25.66-1.27,34.3.95,42.56l36.52,136.21c3.59,13.39,11.67,25.36,22.74,33.69ZM71.88,7.03c3.06,0,5.55,2.49,5.55,5.55s-2.49,5.55-5.55,5.55-5.55-2.49-5.55-5.55,2.49-5.55,5.55-5.55Z"/>
      <path class="cls-1" d="M141.8,26.2l-.6,1.27c-.92,1.95-3.95,9.91-4.26,29.96v245.14c0,19.28-3.41,36.49-9.85,49.77-7.04,14.51-16.73,27.11-28.02,36.46-2.4,1.99-4.9,3.85-7.45,5.56-4.11,2.75-8.55,5.18-13.21,7.21-4.79,2.09-9.72,3.73-14.67,4.87-5.17,1.2-10.31,1.85-15.29,1.94-.37,0-.74,0-1.11,0-4.88,0-9.59-.55-14.03-1.64-5.09-1.24-9.84-3.21-14.12-5.84-4.04-2.49-7.52-5.35-10.33-8.53-.97-1.1-1.55-2.18-1.8-3.31-.68-3.23,1.75-5.23,3.06-6.31l.26-.22c.66-.54,1.31-1.05,1.95-1.55.6-.46,1.21-.92,1.82-1.43l1.99-1.67,1.7,1.97c7.2,8.35,17.69,13.14,28.79,13.14,13.85,0,27.27-7.95,33.42-19.79,3.34-6.44,3.91-13.61,4.53-21.21l.07-.8c.32-4.16.49-8.76.49-14.06V97.16c-15.69,11.12-12.11,20.25-11.93,20.66l1.61,3.85-4.15-.16c-.4-.02-9.79-.53-16.45-7.93-4.71-5.22-6.83-12.44-6.3-21.44,1.26-21.45,23.48-33.15,52.41-46.22,1.41-.63,2.96-1.4,4.77-2.34,1.31-.81,10.08-6.19,14.72-9.77,2.33-1.81,4.27-3.55,5.97-5.09,4.12-3.71,7.39-6.64,12.2-6.53l1.45.04,2.38,3.97Z"/>
      <g>
        <rect class="cls-1" x="367.72" y="176.97" width="7.87" height="221.71"/>
        <rect class="cls-1" x="367.72" y="176.97" width="7.87" height="221.71"/>
        <rect class="cls-1" x="367.72" y="176.97" width="7.87" height="221.71"/>
      </g>
      <g>
        <g>
          <path class="cls-1" d="M410.96,283.41v-6.63l5.16-.84c1.33-.21,2.21-.67,2.63-1.37.42-.7.63-2.03.63-4v-48.41c0-1.82-.23-3.07-.68-3.74-.46-.67-1.39-1.1-2.79-1.32l-4.95-.74v-6.63h32.41c4.49,0,8.7.42,12.63,1.26,3.93.84,7.47,2.14,10.63,3.89,3.16,1.75,5.86,4,8.1,6.73,2.24,2.74,3.98,5.98,5.21,9.73,1.23,3.75,1.84,8.09,1.84,13,0,6.17-.93,11.68-2.79,16.52-1.86,4.84-4.61,8.94-8.26,12.31-3.65,3.37-8.14,5.91-13.47,7.63-5.33,1.72-11.43,2.58-18.31,2.58h-27.99ZM440.85,275.2c4.49,0,8.33-.6,11.52-1.79,3.19-1.19,5.8-3.03,7.84-5.52,2.03-2.49,3.54-5.63,4.53-9.42.98-3.79,1.47-8.24,1.47-13.36,0-6.03-.93-11.08-2.79-15.15-1.86-4.07-4.56-7.1-8.1-9.1-3.54-2-7.91-3-13.1-3h-8.1v56.93c.84.14,1.88.25,3.1.32,1.23.07,2.44.11,3.63.11Z"/>
          <path class="cls-1" d="M491.67,283.41v-6.52l4.63-.84c1.12-.21,1.84-.67,2.16-1.37.32-.7.47-1.96.47-3.79v-26.62c0-2.38-.18-4-.53-4.84-.35-.84-1.33-1.4-2.95-1.68l-4.63-.63.74-6.84,17.36-1.26,1.47.84,1.05,9.58h.42c1.82-3.51,4.14-6.24,6.95-8.21,2.8-1.96,5.89-2.95,9.26-2.95,3.65,0,6.52.98,8.63,2.95,2.1,1.96,3.16,4.63,3.16,8,0,2.1-.32,3.88-.95,5.31-.63,1.44-1.56,2.53-2.79,3.26-1.23.74-2.75,1.1-4.58,1.1-2.32,0-4.07-.47-5.26-1.42-1.19-.95-1.79-2.19-1.79-3.74,0-.56.05-1.1.16-1.63.1-.53.3-1.16.58-1.89.28-.74.63-1.59,1.05-2.58-1.47-.63-3-.72-4.58-.26-1.58.46-3.04,1.37-4.37,2.74-1.33,1.37-2.4,3.05-3.21,5.05-.81,2-1.21,4.16-1.21,6.47v19.47c0,1.75.17,2.95.53,3.58.35.63,1.12,1.02,2.31,1.16l8.21,1.16v6.42h-32.31Z"/>
          <path class="cls-1" d="M560.49,284.88c-4.77,0-8.56-1.3-11.37-3.89-2.81-2.59-4.21-6.07-4.21-10.42,0-4.07,1.04-7.3,3.1-9.68,2.07-2.38,5.33-4.14,9.79-5.26,4.46-1.12,10.29-1.86,17.52-2.21v-6.95c0-2.74-.33-4.96-1-6.68-.67-1.72-1.7-3-3.1-3.84-1.4-.84-3.33-1.26-5.79-1.26-1.68,0-3.37.25-5.05.74-1.68.49-2.98,1.16-3.89,2,.63.98,1.14,1.88,1.53,2.68.38.81.67,1.47.84,2,.17.53.26,1,.26,1.42,0,1.47-.62,2.7-1.84,3.68-1.23.98-2.93,1.47-5.1,1.47s-3.84-.53-5-1.58-1.74-2.53-1.74-4.42c0-2.67.98-5.09,2.95-7.26,1.96-2.17,4.63-3.91,8-5.21,3.37-1.3,7.16-1.95,11.36-1.95,4.91,0,8.94.72,12.1,2.16,3.16,1.44,5.51,3.6,7.05,6.47,1.54,2.88,2.32,6.52,2.32,10.94v23.36c0,1.61.35,2.81,1.05,3.58.7.77,1.79,1.16,3.26,1.16.77,0,1.51-.07,2.21-.21.7-.14,1.47-.35,2.31-.63l1.26,5.26c-1.33,1.19-3.07,2.25-5.21,3.16-2.14.91-4.23,1.37-6.26,1.37-3.3,0-5.86-.79-7.68-2.37-1.82-1.58-2.98-3.77-3.47-6.58-1.12,1.75-2.44,3.31-3.95,4.68-1.51,1.37-3.28,2.42-5.31,3.16-2.04.74-4.35,1.1-6.95,1.1ZM565.96,276.46c1.82,0,3.44-.4,4.84-1.21,1.4-.81,2.51-1.91,3.31-3.31.81-1.4,1.21-3.02,1.21-4.84v-7.26c-3.72,0-6.81.33-9.26,1-2.46.67-4.26,1.68-5.42,3.05-1.16,1.37-1.74,3.1-1.74,5.21,0,2.25.61,4.03,1.84,5.37,1.23,1.33,2.96,2,5.21,2Z"/>
          <path class="cls-1" d="M616.89,285.09c-2.81,0-5.05-.79-6.73-2.37-1.68-1.58-2.53-3.66-2.53-6.26s.84-4.7,2.53-6.31c1.68-1.61,3.93-2.42,6.73-2.42s5.16.79,6.84,2.37,2.53,3.67,2.53,6.26-.86,4.7-2.58,6.31c-1.72,1.61-3.98,2.42-6.79,2.42Z"/>
          <path class="cls-1" d="M679.29,284.88c-3.93,0-7.46-.6-10.58-1.79-3.12-1.19-5.6-2.86-7.42-5-1.83-2.14-2.74-4.61-2.74-7.42,0-2.1.38-3.91,1.16-5.42.77-1.51,1.84-2.67,3.21-3.47,1.37-.81,2.89-1.21,4.58-1.21,2.32,0,4.12.49,5.42,1.47,1.3.98,1.95,2.25,1.95,3.79,0,1.19-.25,2.37-.74,3.53-.49,1.16-1.37,2.75-2.63,4.79.84.7,1.95,1.26,3.31,1.68,1.37.42,2.75.63,4.16.63,2.31,0,4.19-.54,5.63-1.63,1.44-1.09,2.49-2.7,3.16-4.84.67-2.14,1-4.72,1-7.73v-39.67c0-1.82-.23-3.09-.68-3.79-.46-.7-1.39-1.12-2.79-1.26l-6.95-.95v-6.84h33.78v6.63l-5.47.84c-1.19.21-2.02.65-2.47,1.32-.46.67-.68,1.98-.68,3.95v36.51c0,8.42-2.12,14.84-6.37,19.26-4.25,4.42-10.19,6.63-17.84,6.63Z"/>
          <path class="cls-1" d="M742.43,284.88c-5.61,0-10.4-1.12-14.36-3.37-3.96-2.24-7-5.42-9.1-9.52-2.1-4.1-3.16-8.89-3.16-14.36,0-6.1,1.17-11.35,3.53-15.73,2.35-4.38,5.59-7.75,9.73-10.1,4.14-2.35,8.94-3.53,14.42-3.53,4.28,0,8.03.79,11.26,2.37,3.22,1.58,5.72,3.82,7.47,6.73,1.75,2.91,2.63,6.4,2.63,10.47,0,1.61-.11,3.31-.32,5.1-.21,1.79-.53,3.56-.95,5.31h-33.04c.21,3.44.95,6.38,2.21,8.84,1.26,2.46,3,4.3,5.21,5.52,2.21,1.23,4.82,1.84,7.84,1.84s5.79-.53,8.31-1.58c2.53-1.05,4.84-2.49,6.94-4.31l4.63,5.05c-2.6,3.37-5.93,6.09-10,8.16-4.07,2.07-8.49,3.1-13.26,3.1ZM730.54,250.89h20.41c.14-.77.23-1.56.26-2.37.03-.81.05-1.67.05-2.58,0-3.37-.74-5.96-2.21-7.79-1.47-1.82-3.68-2.74-6.63-2.74-2.39,0-4.42.63-6.1,1.89s-3.02,3.04-4,5.31c-.98,2.28-1.58,5.03-1.79,8.26Z"/>
          <path class="cls-1" d="M773.16,283.41v-6.42l4.53-.84c1.12-.21,1.86-.65,2.21-1.32.35-.67.53-1.91.53-3.74v-27.04c0-2.38-.21-3.98-.63-4.79-.42-.81-1.4-1.32-2.95-1.53l-4.53-.74.74-6.73,17.68-1.26,1.47.84.74,9.47h.42c1.82-3.37,4.35-6.05,7.58-8.05,3.23-2,6.91-3,11.05-3,3.93,0,7.17.72,9.73,2.16,2.56,1.44,4.49,3.51,5.79,6.21,1.3,2.7,1.95,5.91,1.95,9.63v25.68c0,1.47.19,2.51.58,3.1.38.6,1.24,1,2.58,1.21l4.31.74v6.42h-28.2v-6.31l3.79-.74c1.26-.28,2.07-.7,2.42-1.26.35-.56.53-1.61.53-3.16v-21.78c0-2.95-.28-5.28-.84-7-.56-1.72-1.49-2.98-2.79-3.79-1.3-.81-3.04-1.21-5.21-1.21-2.46,0-4.6.51-6.42,1.53-1.83,1.02-3.25,2.51-4.26,4.47-1.02,1.96-1.53,4.42-1.53,7.37v20.1c0,1.47.16,2.54.47,3.21.32.67,1.03,1.1,2.16,1.32l4.42.95v6.31h-28.31Z"/>
          <path class="cls-1" d="M843.87,283.41v-6.42l4.53-.84c1.12-.21,1.86-.65,2.21-1.32.35-.67.53-1.91.53-3.74v-27.04c0-2.38-.21-3.98-.63-4.79-.42-.81-1.4-1.32-2.95-1.53l-4.53-.74.74-6.73,17.68-1.26,1.47.84.74,9.47h.42c1.82-3.37,4.35-6.05,7.58-8.05,3.23-2,6.91-3,11.05-3,3.93,0,7.17.72,9.73,2.16,2.56,1.44,4.49,3.51,5.79,6.21,1.3,2.7,1.95,5.91,1.95,9.63v25.68c0,1.47.19,2.51.58,3.1.38.6,1.24,1,2.58,1.21l4.31.74v6.42h-28.2v-6.31l3.79-.74c1.26-.28,2.07-.7,2.42-1.26.35-.56.53-1.61.53-3.16v-21.78c0-2.95-.28-5.28-.84-7-.56-1.72-1.49-2.98-2.79-3.79-1.3-.81-3.04-1.21-5.21-1.21-2.46,0-4.59.51-6.42,1.53-1.83,1.02-3.25,2.51-4.26,4.47-1.02,1.96-1.53,4.42-1.53,7.37v20.1c0,1.47.16,2.54.47,3.21.32.67,1.03,1.1,2.16,1.32l4.42.95v6.31h-28.31Z"/>
          <path class="cls-1" d="M918.37,307.61c-3.72,0-6.73-.84-9.05-2.53-2.32-1.68-3.47-4-3.47-6.95,0-2.25.7-4.12,2.1-5.63,1.4-1.51,3.19-2.26,5.37-2.26,1.96,0,3.46.42,4.47,1.26,1.02.84,1.56,1.86,1.63,3.05.07.56.02,1.37-.16,2.42-.18,1.05-.4,2.35-.68,3.89,1.68.14,3.14-.16,4.37-.89,1.23-.74,2.4-2.04,3.53-3.89,1.12-1.86,2.31-4.33,3.58-7.42l2.21-4.95-17.99-41.04c-.77-1.82-1.4-3.07-1.89-3.74-.49-.67-1.37-1.17-2.63-1.53l-3.58-.84,1.05-6.84h28.1v6.52l-4.42.74c-1.4.14-2.28.6-2.63,1.37-.35.77-.14,2.14.63,4.1l10.42,25.99h.53l10.31-25.36c.7-1.61.89-2.91.58-3.89-.32-.98-1.28-1.61-2.89-1.89l-4.21-1.05,1.16-6.52h22.62v6.63l-3.79.84c-1.19.28-2.07.77-2.63,1.47-.56.7-1.33,2.18-2.32,4.42l-18.84,44.41c-1.54,3.51-3.04,6.54-4.47,9.1-1.44,2.56-2.98,4.65-4.63,6.26-1.65,1.61-3.47,2.81-5.47,3.58-2,.77-4.3,1.16-6.89,1.16Z"/>
          <path class="cls-1" d="M408.26,369.39l10.01-56.94h6.04l20.1,46.55,8.1-46.55h5.81l-10.01,56.94h-5.35l-20.56-46.93-8.25,46.93h-5.89Z"/>
          <path class="cls-1" d="M463.82,357.69c0-13.83,7.87-27.52,21.48-27.52,3.13,0,6.19,1.22,8.64,3.06l2.22-2.06h2.6l-5.35,30.5c-.46,2.6-.15,3.82,2.52,3.82.61,0,1.38-.08,2.22-.23l-.69,3.82c-.84.46-2.9,1.07-5.04,1.07-4.66,0-6.04-2.52-5.2-7.11l.69-3.9c-3.97,6.27-9.1,11.01-14.45,11.01-5.88,0-9.63-4.74-9.63-12.46ZM475.44,364.73c4.43,0,9.71-5.73,13.76-12.99l2.45-14.22c-2.22-1.53-4.59-2.45-7.11-2.45-9.4,0-14.45,11.24-14.45,21.17,0,5.12,1.6,8.48,5.35,8.48Z"/>
          <path class="cls-1" d="M507.23,369.39l6.73-38.44h5.96l-1.53,8.87c2.98-5.04,6.8-9.63,11.16-9.63.99,0,2.22.15,3.59.69l-1.22,5.5c-1.15-.38-1.83-.53-3.29-.53-3.97,0-8.33,5.27-11.46,11.01l-3.97,22.55h-5.96Z"/>
          <path class="cls-1" d="M543.45,369.39l-5.5-38.44h6.04l4.05,32.18,15.52-32.18h6.34l-19.49,38.44h-6.96Z"/>
          <path class="cls-1" d="M572.42,357.69c0-13.83,7.87-27.52,21.48-27.52,3.13,0,6.19,1.22,8.64,3.06l2.22-2.06h2.6l-5.35,30.5c-.46,2.6-.15,3.82,2.52,3.82.61,0,1.38-.08,2.22-.23l-.69,3.82c-.84.46-2.9,1.07-5.04,1.07-4.66,0-6.04-2.52-5.2-7.11l.69-3.9c-3.97,6.27-9.09,11.01-14.45,11.01-5.88,0-9.63-4.74-9.63-12.46ZM584.04,364.73c4.43,0,9.71-5.73,13.76-12.99l2.45-14.22c-2.22-1.53-4.59-2.45-7.11-2.45-9.4,0-14.45,11.24-14.45,21.17,0,5.12,1.6,8.48,5.35,8.48Z"/>
          <path class="cls-1" d="M640.82,369.39l10.01-56.94h9.86c12.08,0,18.88,5.04,18.88,13.76,0,9.25-5.12,16.51-14.98,19.18l4.59,11.69c2.37,5.89,4.89,7.95,9.63,7.95.61,0,1.6-.23,1.99-.46l-.92,4.43c-.99.53-2.45.99-4.13.99-6.04,0-9.48-3.36-12.23-10.7l-4.81-12.92c-.99.08-2.06.15-3.13.15h-4.59l-4.05,22.85h-6.11ZM656.03,317.57l-4.2,24h4.43c12.61,0,16.97-7.03,16.97-14.22,0-6.57-4.43-9.78-13.22-9.78h-3.97Z"/>
          <path class="cls-1" d="M686.68,354.33c0-12.92,8.87-24.15,20.79-24.15,8.56,0,14.06,5.89,14.06,15.9,0,12.99-8.79,24.15-20.79,24.15-8.48,0-14.06-5.81-14.06-15.9ZM715.34,346.69c0-6.73-2.52-11.69-8.64-11.69-7.64,0-13.83,8.71-13.83,18.8,0,6.73,2.67,11.69,8.64,11.69,7.72,0,13.83-8.79,13.83-18.8Z"/>
          <path class="cls-1" d="M729.7,357.69c0-13.83,7.95-27.52,21.55-27.52,2.68,0,5.27.92,7.57,2.29l3.52-20.03h5.96l-10.09,56.94h-5.96l1.83-10.32c-4.05,6.34-9.32,11.08-14.75,11.08-5.88,0-9.63-4.74-9.63-12.46ZM741.32,364.73c4.43,0,10.17-5.81,14.06-13.15l2.52-13.91c-2.29-1.6-4.82-2.6-7.49-2.6-9.32,0-14.45,11.24-14.45,21.17,0,5.12,1.6,8.48,5.35,8.48Z"/>
          <path class="cls-1" d="M773.11,369.39l6.73-38.44h5.96l-1.53,8.87c2.98-5.04,6.8-9.63,11.16-9.63.99,0,2.22.15,3.59.69l-1.22,5.5c-1.15-.38-1.83-.53-3.29-.53-3.97,0-8.33,5.27-11.46,11.01l-3.97,22.55h-5.96Z"/>
          <path class="cls-1" d="M801.77,369.39l6.73-38.44h5.96l-6.73,38.44h-5.96ZM809.95,318.64c0-1.99,1.68-3.59,3.67-3.59s3.59,1.6,3.59,3.59-1.6,3.67-3.59,3.67-3.67-1.61-3.67-3.67Z"/>
          <path class="cls-1" d="M822.49,357.69c0-13.83,7.95-27.52,21.55-27.52,3.21,0,6.27,1.3,8.87,3.13l2.22-2.14h2.6l-6.73,38.14c-1.91,10.85-6.88,18.11-20.48,18.11-6.04,0-9.48-1.99-10.78-2.98l2.45-4.66c2.37,1.61,5.43,2.75,9.48,2.68,7.57,0,11.62-3.13,13.22-12.31l1.91-11.01c-4.05,6.27-9.32,11.01-14.67,11.01-5.88,0-9.63-4.74-9.63-12.46ZM834.1,364.73c4.43,0,10.09-5.73,14.06-13.07l2.45-14.06c-2.22-1.53-4.74-2.52-7.41-2.52-9.32,0-14.45,11.24-14.45,21.17,0,5.12,1.6,8.48,5.35,8.48Z"/>
          <path class="cls-1" d="M877.82,330.94l-4.43,24.92c-1.15,6.42,1.15,9.25,5.35,9.25,5.35,0,10.39-6.19,14.14-12.99l3.67-21.17h5.96l-6.73,38.44h-5.96l1.68-9.63c-3.75,5.66-8.71,10.39-14.75,10.39-7.11,0-11.08-4.97-9.48-13.53l4.59-25.68h5.96Z"/>
          <path class="cls-1" d="M910.61,354.48c0-12.53,9.1-24.31,21.02-24.31,5.5,0,9.78,2.83,9.78,7.87,0,7.49-7.41,14.67-24.54,13.53-.08.46-.08.92-.08,1.38,0,8.48,3.06,12.46,9.71,12.46,4.36,0,9.02-2.6,12.3-5.5l-.99,5.43c-2.98,2.6-7.95,4.82-12.76,4.82-8.64,0-14.45-5.12-14.45-15.67ZM917.41,347.76c11.85.76,18.19-4.2,18.19-9.17,0-2.6-2.14-3.9-4.66-3.9-6.42,0-11.77,5.73-13.53,13.07Z"/>
          <path class="cls-1" d="M944.23,369.39l.76-4.36,24.23-29.43h-17.81l.76-4.66h24.53l-.76,4.28-24.3,29.5h19.26l-.84,4.66h-25.83Z"/>
        </g>
      </g>
    </g>
  </g>
</svg>

