<?xml version="1.0" encoding="UTF-8"?>
<svg id="Capa_2" data-name="Capa 2" xmlns="http://www.w3.org/2000/svg" viewBox="0 0 1200 1200">
  <defs>
    <style>
      .cls-1 {
        fill: #fff;
      }

      .cls-2 {
        fill: #ebc721;
      }
    </style>
  </defs>
  <g id="_0" data-name="0">
    <g>
      <g>
        <path class="cls-2" d="M330.67,968.98c6.59-2.18,11.24-4.89,13.96-8.13,2.72-3.24,4.08-7,4.08-11.29,0-5.23-1.93-9.28-5.78-12.14-3.06-2.26-7.69-3.39-13.88-3.39l-7.88.21c-6.7.23-11.18.35-13.45.35-1.48,0-3.51-.07-6.1-.2l-4.97-.2h-4.48v3.54h3.67c3.06,0,4.99.73,5.78,2.19.65,1.24.97,6.55.97,15.92v35.04c0,5.7-.13,10.78-.38,15.24-.07,1.39-.32,2.38-.73,2.98-.41.6-1.74,1.46-3.97,2.59v2.53l4.48-.17c2.63-.15,4.84-.23,6.64-.23,2.48,0,5.53.09,9.13.26l4.27.13c8.86,0,16.16-2.6,21.9-7.8,5.74-5.2,8.61-11.38,8.61-18.55,0-5.67-1.71-10.1-5.13-13.31-3.42-3.21-9-5.08-16.74-5.6ZM312.74,960.24c0-9.26.16-16.18.49-20.76,2.95-.49,5.69-.73,8.21-.73,5.69,0,9.83,1.15,12.42,3.46s3.89,5.62,3.89,9.93c0,4.99-1.55,8.8-4.64,11.45-3.1,2.64-8.23,3.97-15.39,3.97-1.51,0-3.17-.06-4.97-.17v-7.14ZM335.88,1004.09c-3.51,3.54-8.45,5.31-14.82,5.31-2.2,0-4.97-.26-8.32-.79.14-1.35.22-2.53.22-3.54,0-1.35-.05-3.3-.16-5.85l-.05-7.09v-19.97c2.3-.11,4.37-.17,6.21-.17,6.12,0,10.58.61,13.37,1.83,2.79,1.22,4.96,3.15,6.51,5.79,1.55,2.64,2.32,5.99,2.32,10.04,0,6.08-1.76,10.88-5.27,14.43Z"/>
        <path class="cls-2" d="M416.85,994.84c-.94,4.95-1.86,9.08-2.76,12.37-1.98.75-3.86,1.24-5.62,1.46-2.74.37-6.13.56-10.17.56-6.02,0-11.66-.21-16.93-.62-.11-2.29-.16-5.92-.16-10.88l-.05-7.94v-13.81c3.24-.26,6.37-.39,9.4-.39,8.17,0,12.93.4,14.28,1.21s2.03,3.01,2.03,6.61v3.26h3.67c-.25-4.84-.38-9.04-.38-12.6,0-3.38.13-7.89.38-13.56h-3.67v3.66c0,3.23-.57,5.15-1.7,5.77s-5.99.93-14.55.93c-2.74,0-5.89-.13-9.45-.39v-11.4l.11-8.65c.11-3.52.14-7.04.11-10.56,5.4-.45,10.57-.67,15.5-.67,6.19,0,11.41.83,15.66,2.47.4,2.74.59,6.17.59,10.29h3.67c.14-7.13.9-12.93,2.27-17.38-3.42-.3-6.8-.43-10.15-.39l-9.83.07-20.74.33c-1.66,0-4.09-.07-7.29-.2l-5.72-.2h-5.83v3.54l4.16.45c2.59.26,4.14.56,4.64.9.5.34.89.82,1.16,1.43.27.62.52,2.54.76,5.77.23,3.23.35,7.37.35,12.43v30.88c0,8.06-.13,13.28-.41,15.64-.27,2.36-.81,3.86-1.62,4.5-.81.64-2.78.96-5.91.96h-1.67v3.54c6.98-.26,12.58-.39,16.79-.39s11.27.13,20.63.39l8.48.17c4,0,8.06-.19,12.2-.56l-.11-2.54c0-2.75.49-8.24,1.46-16.47h-3.56Z"/>
        <path class="cls-2" d="M493.97,1010.19c-.61-.34-1.84-1.71-3.67-4.11l-10.37-14.01c-5.22-7.01-9.59-13.16-13.12-18.45,6.95-1.5,12.25-4.28,15.9-8.33,3.65-4.05,5.48-8.72,5.48-14.01,0-3.6-.84-6.69-2.51-9.28-1.67-2.59-4.12-4.57-7.34-5.93-3.22-1.37-7.95-2.05-14.18-2.05-2.27,0-5.99.09-11.18.28-4.46.19-7.88.28-10.26.28-3.53,0-8.64-.13-15.34-.39v3.54h2.92c3.67,0,5.84.7,6.51,2.08.67,1.39,1,7.89,1,19.52v27.06c0,13.39-.29,20.78-.86,22.19-.58,1.41-2.41,2.11-5.51,2.11h-4.05v3.54c8.1-.26,13.7-.39,16.8-.39,3.92,0,8.87.13,14.85.39v-3.54h-4.21c-3.35,0-5.33-.72-5.94-2.17-.61-1.44-.92-8.78-.92-22.02v-27.17c0-6.79.22-13.16.65-19.12,3.82-1.46,7.61-2.19,11.39-2.19,5.44,0,9.59,1.36,12.47,4.08,2.88,2.72,4.32,6.5,4.32,11.33,0,5.4-1.7,9.71-5.1,12.94-3.4,3.23-8.11,4.84-14.12,4.84-1.01,0-2.56-.09-4.64-.28l-.54,1.91c4.07,4.73,7.88,9.56,11.45,14.51l19.12,26.89c2.27-.26,4.43-.39,6.48-.39,2.23,0,4.84.13,7.83.39v-3.54h-1.4c-.65,0-1.28-.17-1.89-.51Z"/>
        <path class="cls-2" d="M546,972.03c-2.61-1.24-7.62-2.23-15.04-2.98-7.42-.73-12.27-1.57-14.55-2.52-2.29-.95-4.1-2.51-5.45-4.66-1.35-2.15-2.03-4.73-2.03-7.72,0-4.75,1.65-8.65,4.94-11.68,3.29-3.03,7.82-4.55,13.58-4.55,3.53,0,6.89.59,10.07,1.77,3.19,1.18,5.16,2.3,5.91,3.35.76,1.05,1.13,3.04,1.13,5.96v4.5h3.73c.07-6.45.61-11.62,1.62-15.52-3.64-1.65-7.26-2.88-10.88-3.68-3.62-.81-7.23-1.21-10.83-1.21-8.96,0-15.98,2.33-21.06,6.97-5.08,4.65-7.61,10.63-7.61,17.94,0,4.31.83,7.92,2.48,10.83,1.66,2.91,3.94,5.03,6.86,6.38s8.44,2.36,16.58,3.04c6.12.53,10.31,1.29,12.58,2.31,2.27,1.01,4.03,2.56,5.29,4.64,1.26,2.08,1.89,4.62,1.89,7.62,0,5.14-1.85,9.38-5.56,12.71-3.71,3.34-8.96,5.01-15.77,5.01-3.17,0-6.12-.38-8.86-1.15-2.74-.77-5.09-1.89-7.07-3.35-1.33-.97-2.18-1.89-2.54-2.76-.36-.86-.54-3.11-.54-6.75v-2.81h-3.67c.04,7.05-.27,12.82-.92,17.32,3.56,1.43,7.1,2.5,10.61,3.24,3.51.73,6.99,1.1,10.45,1.1,10.08,0,18.14-2.72,24.19-8.16,6.05-5.44,9.07-11.93,9.07-19.47,0-3.75-.78-7-2.35-9.74-1.57-2.74-3.65-4.73-6.26-5.96Z"/>
        <path class="cls-2" d="M616.34,994.84c-.94,4.95-1.86,9.08-2.76,12.37-1.98.75-3.86,1.24-5.62,1.46-2.74.37-6.13.56-10.17.56-6.02,0-11.67-.21-16.93-.62-.11-2.29-.16-5.92-.16-10.88l-.05-7.94v-13.81c3.24-.26,6.37-.39,9.4-.39,8.17,0,12.93.4,14.28,1.21s2.02,3.01,2.02,6.61v3.26h3.67c-.25-4.84-.38-9.04-.38-12.6,0-3.38.13-7.89.38-13.56h-3.67v3.66c0,3.23-.57,5.15-1.7,5.77-1.13.62-5.98.93-14.55.93-2.74,0-5.89-.13-9.45-.39v-11.4l.11-8.65c.11-3.52.14-7.04.11-10.56,5.4-.45,10.57-.67,15.5-.67,6.19,0,11.41.83,15.66,2.47.4,2.74.6,6.17.6,10.29h3.67c.14-7.13.9-12.93,2.27-17.38-3.42-.3-6.8-.43-10.15-.39l-9.83.07-20.74.33c-1.66,0-4.09-.07-7.29-.2l-5.72-.2h-5.83v3.54l4.16.45c2.59.26,4.14.56,4.64.9.5.34.89.82,1.16,1.43.27.62.52,2.54.76,5.77.23,3.23.35,7.37.35,12.43v30.88c0,8.06-.13,13.28-.41,15.64-.27,2.36-.81,3.86-1.62,4.5-.81.64-2.78.96-5.91.96h-1.67v3.54c6.98-.26,12.58-.39,16.79-.39s11.27.13,20.63.39l8.48.17c4,0,8.06-.19,12.21-.56l-.11-2.54c0-2.75.48-8.24,1.46-16.47h-3.56Z"/>
        <path class="cls-2" d="M709.76,1006.82c-2.84.79-5.6,1.33-8.26,1.63-3.82.38-9.11.56-15.88.56-3.35,0-6.79-.09-10.31-.28l.16-3.32-.16-15.86v-35.83c0-8.36.25-13.12.76-14.26.5-1.14,1.71-1.72,3.62-1.72h6.7v-3.54c-6.41.26-11.48.39-15.23.39-2.81,0-8.5-.13-17.06-.39v3.54h5.89c2.41,0,3.88.65,4.4,1.94.52,1.29.78,7.57.78,18.82v30.94c0,10.39-.26,16.33-.78,17.83s-2.22,2.91-5.1,4.22v2.98c7.31-.41,12.69-.62,16.15-.62l25.7.45c5.62,0,10.04-.28,13.28-.84.5-6.15,1.21-12.77,2.11-19.86h-3.51l-3.24,13.22Z"/>
        <path class="cls-2" d="M722.18,934.2v3.54h4.37c2.88,0,4.61.77,5.18,2.31.58,1.54.86,9.81.86,24.81v19.07c0,14.47-.33,22.56-1,24.24-.67,1.69-2.67,2.53-6.02,2.53h-3.4v3.54c4.9-.26,10.4-.39,16.5-.39,5.23,0,10.06.13,14.5.39v-3.54h-3.58c-3.33,0-5.3-.74-5.92-2.22-.61-1.48-.92-9.52-.92-24.1v-19.41c0-10.27.09-17.42.27-21.43.11-2.59.49-4.2,1.14-4.84.65-.64,2.26-.96,4.83-.96h4.18v-3.54c-3.97.26-8.39.39-13.25.39-5.84,0-11.76-.13-17.74-.39Z"/>
        <path class="cls-2" d="M819.28,934.2v3.54l4.05.39c3.63.38,5.71,1.27,6.24,2.67.52,1.41.78,9.67.78,24.78v36.11c-2.95-3.3-7.76-9.19-14.42-17.66l-18.47-23.62c-3.38-4.35-6.65-8.67-9.8-12.97-3.15-4.29-6.51-8.71-10.07-13.25-3.1.26-5.94.39-8.53.39-2.41,0-5.9-.13-10.48-.39v3.54h3.35c1.69,0,3.01.32,3.94.96.93.64,1.65,1.36,2.13,2.17.49.81.76,2.3.84,4.47.11,5.14.16,10.33.16,15.58v27.96c0,7.09-.2,12.69-.59,16.82-.18,1.99-.63,3.32-1.35,3.99s-2.25,1.01-4.59,1.01h-3.89v3.54c7.9-.26,12.95-.39,15.15-.39,3.17,0,6.73.13,10.66.39v-3.54l-3.47-.28c-2.86-.26-4.59-.68-5.19-1.27-.6-.58-1.02-2.2-1.28-4.87-.33-3.49-.49-9.66-.49-18.51v-38.88l38.83,49.97c4.39,5.63,8.59,10.75,12.58,15.36.72.83,1.48,1.42,2.27,1.77.79.36,3.64.93,8.53,1.72-.58-9.49-.86-17.64-.86-24.47v-25.37c0-14.89.16-23.1.49-24.64.5-2.33,2.43-3.49,5.78-3.49h4.16v-3.54c-5.29.26-9.61.39-12.96.39s-7.7-.13-13.5-.39Z"/>
        <path class="cls-2" d="M911.84,994.84h-3.56c-.94,4.95-1.86,9.08-2.76,12.37-1.98.75-3.86,1.24-5.62,1.46-2.74.37-6.13.56-10.17.56-6.02,0-11.67-.21-16.93-.62-.11-2.29-.16-5.92-.16-10.88l-.05-7.94v-13.81c3.24-.26,6.37-.39,9.4-.39,8.17,0,12.93.4,14.28,1.21s2.03,3.01,2.03,6.61v3.26h3.67c-.25-4.84-.38-9.04-.38-12.6,0-3.38.13-7.89.38-13.56h-3.67v3.66c0,3.23-.57,5.15-1.7,5.77-1.13.62-5.99.93-14.55.93-2.74,0-5.89-.13-9.45-.39v-11.4l.11-8.65c.11-3.52.14-7.04.11-10.56,5.4-.45,10.57-.67,15.5-.67,6.19,0,11.41.83,15.66,2.47.4,2.74.59,6.17.59,10.29h3.67c.14-7.13.9-12.93,2.27-17.38-3.42-.3-6.8-.43-10.15-.39l-9.83.07-20.74.33c-1.66,0-4.09-.07-7.29-.2l-5.72-.2h-5.83v3.54l4.16.45c2.59.26,4.14.56,4.64.9.5.34.89.82,1.16,1.43.27.62.52,2.54.76,5.77.23,3.23.35,7.37.35,12.43v30.88c0,8.06-.14,13.28-.4,15.64-.27,2.36-.81,3.86-1.62,4.5-.81.64-2.78.96-5.91.96h-1.67v3.54c6.98-.26,12.58-.39,16.79-.39s11.27.13,20.63.39l8.48.17c4,0,8.06-.19,12.21-.56l-.11-2.54c0-2.75.49-8.24,1.46-16.47Z"/>
        <path class="cls-2" d="M523.1,798.68c3.92-4.71,7.66-9.67,11.21-14.85,3.53-5.16,6.85-10.53,9.97-16.11,1.62-2.9,3.18-5.84,4.69-8.83,1.59-3.15,3.12-6.33,4.6-9.56,1.56-3.39,3.07-6.83,4.53-10.3,1.53-3.65,3.02-7.34,4.46-11.05,4.96-12.83,9.18-26.1,12.63-39.73,3.1-12.25,5.22-24.87,6.33-37.67,1.03-11.91,1.04-23.92.01-35.83-1.01-11.68-3.07-23.18-6.16-34.25-1.07-3.83-2.25-7.61-3.54-11.32-1.32-3.81-2.75-7.56-4.27-11.24-1.59-3.83-3.27-7.59-5.05-11.27-1.88-3.88-3.84-7.68-5.88-11.41-.48-.88-.98-1.76-1.47-2.64-.66-1.16-1.32-2.31-1.98-3.46-.65-1.12-1.29-2.24-1.95-3.35-.42-.72-.84-1.43-1.28-2.13l-.72-1.17-8.67,15.26-8.67,15.26,1.13,1.59c2.13,2.99,4.11,6.15,5.93,9.45,1.93,3.49,3.71,7.11,5.34,10.84,1.65,3.78,3.15,7.66,4.49,11.64,1.3,3.87,2.43,7.82,3.39,11.85.56,2.34,1.06,4.71,1.51,7.09.44,2.33.82,4.68,1.15,7.05.33,2.37.6,4.76.82,7.16.22,2.47.39,4.94.5,7.42.05,1.1.08,2.21.08,3.32,0,1.64,0,3.29,0,4.93-.01,1.63-.04,3.26-.07,4.9-.02,1.04-.07,2.08-.14,3.12-.41,6.09-1.11,12.14-2.11,18.11-1.01,6.02-2.31,11.95-3.89,17.76-1.66,6.09-3.59,12.06-5.79,17.86-2.38,6.29-4.99,12.44-7.82,18.42-1.63,3.45-3.31,6.85-5.04,10.21-1.74,3.37-3.52,6.7-5.36,9.98-1.79,3.19-3.62,6.34-5.51,9.44-1.78,2.92-3.61,5.79-5.49,8.6-1.52,2.26-3.07,4.49-4.65,6.68-1.61,2.23-3.25,4.41-4.91,6.56-1.63,2.11-3.3,4.18-4.99,6.21-1.6,1.91-3.22,3.78-4.88,5.61-3.37,3.71-6.87,7.23-10.47,10.55-3.51,3.23-7.13,6.25-10.85,9.05-3.58,2.69-7.27,5.16-11.04,7.4-3.6,2.13-7.28,4-11.04,5.61-1.23.52-2.46,1.02-3.71,1.49-1.11.42-2.23.81-3.35,1.16-1.07.34-2.15.64-3.24.9-1.12.27-2.24.51-3.36.72l-.53.1V216.27l1.43-.1c1.69-.12,3.39-.17,5.09-.14,2.74.05,5.47.14,8.21.26,2.9.13,5.8.3,8.7.51,2.62.19,5.23.42,7.84.7,8.09.87,16.15,2.16,24.16,3.87,7.23,1.54,14.4,3.59,21.46,6.14,6.28,2.27,12.45,5.03,18.47,8.28,5.27,2.84,10.33,6.3,15.12,10.32,2.49,2.1,4.89,4.37,7.18,6.81,2.12,2.26,4.12,4.7,5.97,7.32,1.77,2.49,3.39,5.15,4.85,7.95,1.44,2.77,2.72,5.68,3.82,8.7,1.36,3.76,2.58,7.61,3.65,11.53,1.12,4.11,2.1,8.28,2.94,12.5.86,4.32,1.58,8.69,2.16,13.09.58,4.42,1.02,8.86,1.31,13.32.16,2.5.28,5.01.36,7.52.08,2.63.12,5.26.12,7.89,0,2.67-.04,5.33-.12,8-.08,2.62-.2,5.23-.36,7.84-.29,4.73-.72,9.44-1.27,14.13-.58,4.91-1.28,9.8-2.09,14.66-.79,4.73-1.82,9.4-2.72,14.08-.62,3.2-1.89,8.02-3.17,12.37l-.67,2.27,1.07.69c.25.16.51.33.76.49,1,.66,2.01,1.32,3.01,1.98,1.18.78,2.37,1.56,3.55,2.34,1.34.88,2.67,1.76,4.01,2.64,1.31.87,2.63,1.73,3.94,2.58,1.11.72,2.22,1.44,3.34,2.15,1,.64,2,1.28,3,1.91.03.02.07.01.09-.02.07-.1.13-.21.17-.34.25-.86.5-1.72.74-2.59.28-.97.55-1.95.81-2.92.29-1.08.58-2.16.86-3.24,1.45-5.55,2.77-11.16,3.96-16.82,1.21-5.77,2.29-11.58,3.24-17.42.94-5.77,1.75-11.58,2.43-17.41.65-5.57,1.15-11.17,1.51-16.79.11-1.76.22-3.51.31-5.27.07-1.29.12-2.58.16-3.87.04-1.37.09-14.44.07-16.51,0-1.34-.03-2.68-.07-4.02-.04-1.22-.09-2.43-.16-3.65-.09-1.58-.19-3.15-.31-4.72-.45-6.25-3.25-24.69-2.14-18.72-.31-1.63-2.17-11.41-3.61-17.35-1.34-5.5-3.13-10.83-5.09-16.03-1.91-5.05-4.09-9.92-6.53-14.58-1.78-3.4-3.7-6.67-5.74-9.81-2.08-3.19-4.28-6.24-6.6-9.14-2.38-2.98-4.86-5.8-7.45-8.47-2.67-2.75-5.44-5.35-8.29-7.78-5.74-4.9-11.78-9.21-18.05-12.9-6.81-4-13.8-7.45-20.94-10.35-7.76-3.14-15.65-5.72-23.64-7.72-8.66-2.17-17.38-3.84-26.15-5.01-1.46-.19-2.92-.37-4.38-.54-1.56-.17-3.11-.34-4.67-.48-1.67-.16-3.34-.3-5.02-.43-1.81-.14-3.62-.27-5.44-.39-1.28-.08-2.55-.13-3.83-.15-3.03-.03-6.06-.06-9.09-.07-3.02-.02-6.05-.02-9.07-.02-1.34,0-2.68.03-4.02.1-1.13.06-2.25.12-3.38.19-1.11.07-2.21.15-3.31.23-1.13.09-2.26.18-3.38.28-1.19.11-2.39.22-3.58.34l-1.02.1v681.05c1.08,0,3.5-.06,4.58-.16,1.51-.15,3.02-.32,4.53-.52,1.66-.22,3.32-.47,4.97-.74,1.58-.26,3.17-.56,4.74-.89,5.91-1.23,11.76-2.82,17.55-4.78,5.79-1.96,11.49-4.28,17.1-6.95,5.57-2.65,11.03-5.65,16.37-8.99,5.26-3.29,10.39-6.92,15.36-10.89,4.54-3.62,8.93-7.52,13.17-11.7,4.26-4.2,8.36-8.66,12.27-13.37Z"/>
        <path class="cls-2" d="M604.76,296.68c.03.18.03.18,0,0h0Z"/>
        <path class="cls-2" d="M604.75,296.63s0-.03,0-.05c0,.04.01.07.02.1,0-.02,0-.03,0-.05Z"/>
        <path class="cls-2" d="M767.26,801.56c2.58-.05,4.94-1.21,6-3.66.98-2.3,1.01-4.87,1.18-7.31.15-2.11.24-4.23.28-6.35.06-3.07.09-6.13.09-9.21-.01-3.85-.05-7.69-.12-11.54-.07-4.13-.19-8.26-.33-12.39-.17-4.69-.35-9.37-.58-14.06-.26-5.54-.55-11.08-.85-16.62-.09-1.58-.17-3.16-.24-4.75-.06-1.42-.12-2.85-.17-4.29-.05-1.41-.09-2.82-.11-4.23-.02-1.51-.05-3.01-.06-4.52-.01-1.19-.02-2.38-.04-3.56-.01-.44-.02-.86-.05-1.29-.01-.26-.05-.51-.1-.77-.05-.23-.11-.46-.19-.68s-.15-.45-.19-.69c-.06-.26-.09-.52-.11-.8-.04-.45-.06-.9-.07-1.35-.04-1.14-.07-2.3-.11-3.45-.01-.72-.04-1.43-.06-2.15-.02-.64-.05-1.29-.07-1.94-.02-.53-.05-1.08-.09-1.63,0-.19-.02-.39-.05-.57-.15-1.01-.26-2-.33-3.01-.12-1.46-.22-2.9-.29-4.36-.11-1.94-.21-3.89-.28-5.83-.1-2.62-.19-5.26-.28-7.88-.13-4.24-.27-8.47-.41-12.69-.05-1.63-.11-3.26-.19-4.87-.06-1.45-.15-2.89-.23-4.34-.18-2.68-.36-5.38-.55-8.08-.09-1.17-.16-2.33-.24-3.51-.07-1.17-.16-2.33-.23-3.51-.06-1.02-.13-2.04-.19-3.06-.04-.62-.07-1.25-.11-1.87-.02-.46-.05-.92-.09-1.38-.02-.43-.05-.85-.09-1.28-.02-.35-.06-.7-.09-1.07-.01-.15-.04-.29-.06-.45-.09-.44-.15-.89-.19-1.34-.07-.66-.13-1.31-.19-1.96-.06-.75-.12-1.51-.17-2.26-.05-.77-.08-1.54-.12-2.31-.01-.46-.04-.92-.06-1.38-.02-.49-.05-.98-.07-1.47-.02-.46-.05-.91-.07-1.36-.01-.33-.04-.66-.06-.98-.02-.4-.04-.8-.05-1.2-.02-.86-.05-1.74-.07-2.61-.02-1.03-.05-2.07-.07-3.1-.02-1.11-.04-2.21-.06-3.32-.02-1.8-.05-3.61-.1-5.42-.02-1.4-.06-2.79-.11-4.19-.04-1.11-.09-2.21-.15-3.3-.05-.89-.11-1.77-.18-2.66-.02-.34-.05-.69-.07-1.03-.06-1.18-.12-2.36-.18-3.54-.07-1.4-.15-2.79-.22-4.2-.09-1.55-.16-3.12-.24-4.69-.15-3.13-.3-6.28-.47-9.41-.13-2.78-.28-5.56-.44-8.35-.13-2.58-.28-5.15-.43-7.71-.13-2.5-.28-4.99-.44-7.48-.1-1.79-.21-3.56-.3-5.35-.09-1.6-.17-3.21-.24-4.81-.07-1.51-.15-3.01-.21-4.52-.06-1.48-.11-2.96-.16-4.45-.04-1.08-.09-2.16-.12-3.24-.04-.9-.09-1.79-.13-2.68-.05-.8-.1-1.6-.16-2.41-.05-.79-.11-1.58-.18-2.37-.04-.35-.06-.72-.09-1.07-.02-.47-.05-.94-.07-1.41-.02-.51-.05-1.01-.06-1.51-.01-.46-.02-.91-.04-1.37s-.02-.92-.04-1.38c-.02-.53-.05-1.07-.06-1.59-.02-.52-.05-1.03-.09-1.54-.02-.4-.05-.81-.07-1.21-.04-.39-.06-.77-.09-1.15-.02-.44-.05-.87-.07-1.31-.02-.41-.05-.84-.07-1.26-.02-.33-.04-.67-.05-1-.01-.34-.02-.67-.05-1.01-.02-.43-.05-.85-.07-1.28-.04-.45-.07-.89-.11-1.34-.02-.39-.06-.79-.1-1.18-.04-.38-.06-.77-.1-1.14-.04-.4-.06-.8-.1-1.21-.02-.36-.05-.74-.09-1.11-.01-.27-.02-.52-.04-.79-.02-.27-.04-.53-.05-.8-.04-.4-.06-.79-.09-1.19-.04-.44-.07-.87-.1-1.31-.04-.41-.07-.84-.11-1.25-.04-.49-.07-.96-.11-1.45-.05-.63-.09-1.26-.13-1.9-.04-.67-.09-1.34-.12-2-.04-.61-.06-1.21-.1-1.82-.02-.58-.06-1.17-.1-1.75-.02-.61-.06-1.21-.11-1.82-.02-.53-.06-1.08-.1-1.63-.02-.36-.06-.73-.09-1.09-.04-.38-.06-.75-.09-1.13-.04-.58-.06-1.17-.09-1.76-.04-.66-.06-1.32-.1-1.99-.02-.66-.05-1.31-.06-1.96-.05-1.52-.1-3.02-.16-4.53-.06-1.58-.12-3.16-.19-4.74-.09-1.88-.17-3.77-.27-5.65-.12-2.49-.24-4.98-.38-7.46-.06-1.18-.12-2.34-.17-3.52-.06-1.12-.11-2.25-.15-3.37-.04-.96-.07-1.92-.11-2.88-.02-.5-.02-1-.02-1.49,0-.36-.01-.73-.01-1.09-.01-.39-.01-.79-.02-1.18-.01-.36-.04-.72-.05-1.08-.01-.27-.02-.52-.05-.78-.05-.5-.09-.98-.12-1.48-.05-.75-.1-1.52-.16-2.28-.06-1.01-.13-2.03-.19-3.05-.08-1.35-.17-2.7-.26-4.05-.02-.5-.05-1.01-.09-1.51-.04-.72-.07-1.43-.1-2.15-.04-.79-.07-1.58-.11-2.37-.04-.74-.07-1.49-.1-2.24-.04-.78-.06-1.54-.11-2.31-.04-.87-.08-1.74-.13-2.6-.05-.83-.1-1.64-.15-2.47-.05-.64-.09-1.28-.15-1.91-.04-.6-.09-1.18-.13-1.77-.04-.66-.09-1.32-.12-1.99-.05-.63-.09-1.28-.12-1.91-.02-.5-.05-1-.07-1.49-.02-.45-.04-.91-.06-1.36-.02-.5-.05-.98-.07-1.48-.02-.46-.05-.94-.07-1.4-.01-.34-.04-.68-.06-1.03-.01-.33-.04-.66-.06-.98-.02-.4-.05-.8-.07-1.2-.02-.41-.05-.83-.07-1.24-.01-.35-.04-.7-.06-1.06-.01-.33-.04-.66-.06-.98-.02-.34-.05-.67-.07-1.01-.02-.29-.05-.6-.07-.89-.01-.19-.04-.39-.05-.58-.07-.62-.12-1.23-.16-1.85-.16-3.35-.33-6.69-.49-10.05-.17-3.39-.33-6.79-.49-10.19-.13-2.95-.26-5.89-.38-8.83-.21-5.11-.41-10.23-.62-15.34-.15-3.73-.29-7.46-.43-11.2-.11-3.1-.22-6.21-.32-9.31,0-2.5-.17-5.02-.23-7.52-.17-6.11-.5-12.23-1.69-18.23-.9-4.54-2.36-10-7.58-11.12-3.51-.74-6.72,1.04-8.87,3.73-2.16,2.71-2.99,5.76-3.57,9.1-.72,4.13-1.24,8.3-1.86,12.44-.24,1.63-.49,3.26-.74,4.87-.26,1.64-.52,3.28-.79,4.91-.34,2.13-.68,4.24-1.03,6.35-.38,2.25-.74,4.49-1.11,6.74-.22,1.35-.44,2.7-.64,4.05-.17,1.14-.34,2.28-.5,3.41-.19,1.38-.39,2.78-.57,4.17-.17,1.29-.35,2.59-.53,3.88-.15,1.04-.3,2.08-.47,3.12-.16,1.01-.33,2.03-.51,3.04-.22,1.2-.44,2.42-.66,3.62-.34,1.79-.67,3.57-.97,5.37-.32,1.74-.61,3.5-.89,5.25-.33,1.99-.63,4-.94,6-.39,2.59-.78,5.18-1.15,7.77-.29,2.05-.6,4.11-.9,6.16-.32,2.09-.63,4.18-.95,6.26-.32,2.14-.64,4.28-.98,6.4-.34,2.2-.68,4.4-1.03,6.6-.28,1.82-.57,3.64-.85,5.48-.21,1.28-.4,2.55-.6,3.83-.16,1.07-.32,2.14-.46,3.22-.16,1.12-.32,2.25-.46,3.36-.13.97-.27,1.93-.41,2.89-.15,1.01-.3,2-.46,3-.19,1.18-.39,2.37-.6,3.55-.28,1.58-.55,3.15-.84,4.73-.3,1.73-.61,3.46-.9,5.19-.24,1.35-.46,2.7-.68,4.05-.21,1.31-.41,2.62-.61,3.94-.24,1.59-.47,3.18-.69,4.79-.27,1.8-.52,3.6-.78,5.39-.19,1.29-.39,2.56-.58,3.85-.22,1.41-.45,2.83-.68,4.24-.39,2.39-.79,4.8-1.18,7.19-.41,2.47-.81,4.92-1.2,7.39-.29,1.8-.57,3.61-.85,5.41l-.66,4.52c-.19,1.49-.4,2.99-.58,4.48-.15,1.17-.29,2.34-.45,3.51-.12.89-.26,1.77-.4,2.66-.13.87-.28,1.74-.44,2.6-.19,1.09-.4,2.19-.62,3.27-.51,2.68-1,5.38-1.45,8.08-.6,3.58-4.65,30.94-5.88,39.04.09-.69.18-1.37.28-2.07-.17,1.09-.43,2.89-.57,3.94-.05.3-.1.61-.12.84,0,0,0-.01.01-.01-.01.06-.01.1-.02.13-.05.22-.06.34-.04.26-.02.15-.04.29-.06.45-.01.04-.02.09-.06.11-.01.02-.04.05-.06.06-.06.01-.11.04-.16.06-.07.02-.13.04-.19.06-.07.01-.15.02-.22.05l-.52.1-.56-1.4c-.15-.36-.29-.75-.43-1.13-.67-1.77-1.08-3.66-1.66-5.47-.58-1.82-1.21-3.63-1.85-5.44-.47-1.36-.96-2.71-1.45-4.06-.49-1.38-.97-2.76-1.47-4.14-.46-1.3-.91-2.6-1.37-3.9-.38-1.11-.77-2.2-1.14-3.3-.18-.52-.35-1.03-.52-1.57-.39-1.25-.79-2.5-1.19-3.75-.26-.8-.52-1.6-.79-2.41-.21-.63-.43-1.26-.64-1.88-.23-.63-.46-1.25-.69-1.87-.35-.94-.69-1.86-1.02-2.79-.3-.87-.6-1.76-.89-2.65-.32-1-.62-1.99-.91-3-.39-1.32-.78-2.66-1.15-3.98-.5-1.77-1.01-3.55-1.52-5.32-.34-1.15-.69-2.31-1.07-3.45-.29-.91-.61-1.82-.95-2.71-.34-.91-.69-1.81-1.07-2.7-.44-1.02-.91-2.03-1.42-3-.5-.92-1.02-1.81-1.59-2.66-.5-.73-1.03-1.43-1.6-2.09-.44-.5-.92-.92-1.45-1.25-.49-.3-.98-.56-1.51-.77-.5-.19-1.02-.35-1.56-.45-.51-.1-1.04-.15-1.57-.13s-1.04.07-1.57.19c-.44.1-.87.26-1.29.46-.45.24-.9.51-1.31.84-.47.35-.91.74-1.34,1.17-.46.47-.91.97-1.32,1.51-.35.44-.68.9-.98,1.38-.32.5-.61,1.02-.87,1.56-.36.73-.72,1.47-1.04,2.22-.55,1.26-1.08,2.53-1.6,3.79-.5,1.19-1,2.37-1.48,3.56-.36.9-.73,1.8-1.09,2.7-.39,1-.78,1.98-1.17,2.98-.61,1.57-1.2,3.12-1.81,4.69-.86,2.25-1.75,4.48-2.66,6.69-1.85,4.49-3.71,8.97-5.58,13.45-2.11,5.1-4.24,10.2-6.37,15.31-.01.01-.01.02-.02.04-.04.05-.1.04-.13,0-.04-.05-.06-.09-.09-.13-.69-1.26-1.37-2.53-2.05-3.79-.77-1.41-1.52-2.81-2.28-4.22-.9-1.66-1.8-3.33-2.68-4.99-1.58-2.92-3.16-5.82-4.74-8.73-.72-1.32-1.46-2.64-2.22-3.94-.6-1-1.21-1.98-1.86-2.94-.83-1.23-1.68-2.45-2.54-3.66-.77-1.07-1.54-2.14-2.32-3.19-.69-.92-1.38-1.83-2.09-2.75-.79-1-1.59-1.99-2.39-2.98-1.09-1.34-2.21-2.67-3.32-4.01-1.68-2.02-3.38-4-5.1-5.96-1.55-1.76-3.13-3.5-4.74-5.2-1.59-1.7-3.22-3.37-4.87-5.01-1.83-1.81-3.69-3.6-5.56-5.36-2.83-2.65-5.71-5.22-8.64-7.71-3.07-2.61-6.18-5.14-9.33-7.58-3.05-2.37-6.13-4.65-9.26-6.85-2.76-1.94-5.56-3.78-8.41-5.5-.47-.29-.95-.58-1.41-.89-.44-.29-.86-.58-1.29-.89-.46-.33-.91-.67-1.37-1.01-.56-.44-1.12-.87-1.66-1.32-3.29-2.62-6.45-5.49-9.45-8.58-2.78-2.85-5.38-5.96-7.77-9.28-2.17-3.01-4.14-6.23-5.87-9.63-1.53-3.02-2.77-6.26-3.68-9.62-.26-.95-.49-1.92-.68-2.89-.19-.92-.35-1.85-.47-2.79-.12-.94-.22-1.87-.27-2.82-.06-1-.1-1.99-.1-2.99,0-1.3.06-2.61.17-3.91.1-1.24.26-2.48.47-3.69.23-1.24.51-2.47.85-3.67.36-1.29.77-2.55,1.23-3.8.96-2.62,2.14-5.14,3.51-7.51,1.34-2.31,2.87-4.46,4.57-6.41,1.75-1.99,3.66-3.78,5.7-5.33,2.17-1.65,4.46-3.09,6.83-4.3,1.42-.73,2.87-1.36,4.35-1.91,1.62-.6,3.26-1.11,4.91-1.54,1.74-.46,3.5-.84,5.26-1.14,1.81-.3,3.62-.53,5.44-.69.74-.06,1.47-.1,2.21-.1,1.29-.01,2.59-.01,3.88.01,1.3.01,2.6.02,3.9.06.56.01,1.12.06,1.68.13l.36.1,1.21-19.96v-19.97l-2.2-.13c-.24-.02-.49-.05-.73-.05-.56-.02-1.11-.04-1.65-.05-.66-.02-1.31-.04-1.96-.04-.7-.01-1.41-.01-2.1-.01-1.26-.01-2.51,0-3.77.02-.9.01-1.8.06-2.68.13-.85.06-1.69.15-2.53.27-1.06.15-2.11.32-3.17.5-2.27.39-4.51.9-6.74,1.52-2.22.62-4.43,1.35-6.61,2.2-2.16.84-4.3,1.8-6.4,2.85-2.07,1.04-4.08,2.2-6.06,3.46-4.91,3.12-9.52,6.88-13.75,11.2-4.22,4.3-8.03,9.15-11.36,14.46-3.32,5.26-6.13,10.95-8.39,16.95-2.25,5.94-3.92,12.17-4.98,18.56-.24,1.47-.46,2.94-.67,4.42-.16,1.23-.29,2.47-.39,3.72-.1,1.28-.17,2.56-.21,3.85-.04,1.62-.06,3.23-.06,4.85,0,1.36.01,2.73.05,4.11.01,1.01.05,2.02.12,3.01.06.96.15,1.92.24,2.87.13,1.19.28,2.37.45,3.55.8,5.87,2.17,11.6,4.07,17.1,1.88,5.47,4.3,10.67,7.18,15.48,3.16,5.25,6.75,10.1,10.74,14.46,4.64,5.09,9.56,9.8,14.72,14.13,1.49,1.25,3,2.47,4.53,3.67,1.65,1.3,3.3,2.56,4.98,3.81,2.09,1.55,4.18,3.09,6.28,4.6,2.92,2.09,5.84,4.18,8.77,6.24,2.33,1.65,4.65,3.3,6.99,4.96,1.49,1.07,2.98,2.15,4.46,3.24,1.2.89,2.39,1.79,3.57,2.71,1.26.97,2.53,1.97,3.77,2.96,1.83,1.48,3.64,3,5.43,4.57,1.52,1.35,3.01,2.76,4.46,4.23,1.4,1.42,2.75,2.89,4.05,4.42,1.42,1.66,2.81,3.38,4.14,5.14,3.47,4.57,6.82,9.28,10.01,14.14,2.95,4.49,5.72,9.14,8.32,13.93,2.48,4.58,4.77,9.29,6.86,14.14,2.09,4.8,3.97,9.72,5.65,14.75,1.54,4.65,2.93,9.39,4.13,14.19,1.21,4.86,2.26,9.77,3.12,14.74.91,5.2,1.65,10.45,2.21,15.72.6,5.69,1.04,11.4,1.34,17.12.07,1.48.12,2.96.15,4.45.04,2.44.06,4.9.07,7.35.01,2.49.01,4.97.01,7.45-.01,1.7-.04,3.39-.1,5.08-.06,1.97-.13,3.94-.23,5.9-.09,1.99-.19,3.98-.32,5.98-.11,1.88-.23,3.75-.38,5.64-.12,1.6-.26,3.22-.41,4.82-.91,9.49-2.49,18.87-4.71,28.03-2.33,9.65-5.25,19.08-8.72,28.23-3.67,9.68-7.88,19.06-12.62,28.06-5.02,9.56-10.48,18.76-16.38,27.56-2.22,3.33-4.52,6.61-6.86,9.82-2.42,3.32-4.9,6.56-7.42,9.74-2.44,3.09-4.93,6.1-7.48,9.05-2.3,2.66-4.64,5.24-7.06,7.74-.18.19-.36.39-.55.58-.16.16-.3.33-.46.51-.12.15-.26.29-.38.44-.02.02-.02.06-.02.09.02.07.06.15.1.21,3.19,4.88,6.39,9.75,9.6,14.64,3.13,4.8,6.28,9.6,9.43,14.4.16.23.32.45.49.67.06.07.16.09.23.04.16-.13.3-.28.44-.44.27-.32.53-.64.79-.97.7-.94,1.41-1.86,2.1-2.79,2.5-3.33,4.99-6.68,7.46-10.05,2.11-2.89,4.22-5.81,6.28-8.75,1.93-2.73,3.83-5.49,5.71-8.27,1.91-2.83,3.79-5.67,5.65-8.55,4.56-7.03,8.93-14.21,13.14-21.55,4.11-7.16,8.02-14.46,11.75-21.9,3.61-7.2,7.02-14.54,10.24-22,3.07-7.16,5.94-14.44,8.59-21.85,3.06-8.58,5.59-17.42,7.57-26.45,2.05-9.44,3.61-19.01,4.63-28.69,1.06-9.99,1.59-20.04,1.6-30.12,0-10.28-.51-20.54-1.52-30.75-.46-4.71-1.04-9.4-1.73-14.07-.7-4.74-1.52-9.45-2.43-14.14-.9-4.6-1.91-9.17-3.02-13.7-1.06-4.31-2.22-8.58-3.52-12.79-.1-.33-.19-.67-.29-1-.1-.29-.18-.6-.26-.89-.07-.26-.15-.5-.21-.75-.02-.06-.02-.11-.02-.17s0-.11.02-.16c.06-.18.12-.36.18-.55.09-.21.16-.43.24-.63.1-.24.18-.47.28-.72.56-1.36,1.12-2.72,1.66-4.09.84-2.07,1.68-4.14,2.51-6.22.83-2.04,1.64-4.09,2.47-6.13.4-1,.8-1.99,1.19-2.98.21-.53.43-1.06.63-1.59.34-.83.67-1.66,1.01-2.49.38-.94.77-1.88,1.14-2.82.38-.94.75-1.86,1.13-2.78.38-.9.74-1.81,1.11-2.72.35-.87.69-1.75,1.04-2.62.29-.74.58-1.49.87-2.25.16-.4.3-.8.45-1.2.21-.58.4-1.18.58-1.77.23-.73.45-1.46.66-2.2.21-.7.4-1.41.6-2.11.13-.47.24-.96.35-1.45.04-.19.09-.38.13-.56.04-.1.09-.16.16-.21.07-.04.16-.06.23-.04.19.04.39.09.57.15.32.1.6.29.8.57.28.36.5.78.68,1.21.35.86.68,1.74.98,2.62,1.12,3.27,2.22,6.55,3.33,9.82.49,1.43.97,2.87,1.46,4.3.5,1.48,1.01,2.96,1.51,4.45.46,1.34.91,2.67,1.36,4,.32.9.62,1.79.92,2.68,1.21,3.51,2.43,7.02,3.63,10.53.87,2.54,1.75,5.08,2.61,7.63.74,2.15,1.47,4.31,2.2,6.48.77,2.25,1.52,4.51,2.27,6.75,1.24,3.69,2.48,7.4,3.73,11.09.66,1.96,1.34,3.9,2.03,5.84.44,1.21.89,2.42,1.36,3.61,1.15,2.87,2.88,5.31,5.48,7.03,1.12.74,2.36,1.34,3.69,1.43,1.58.12,3.15-.49,4.48-1.35,3.09-1.99,4.77-5.16,5.56-8.66.27-1.24.52-2.5.73-3.77.52-3.15,1.03-6.29,1.54-9.44.52-3.19,1.02-6.4,1.52-9.61.35-2.28.69-4.59,1.01-6.89.23-1.69.46-3.38.69-5.07.13-.92.27-1.83.43-2.75.11-.69.23-1.37.36-2.04.15-.73.3-1.45.47-2.16.32-1.36.62-2.73.89-4.11.28-1.46.55-2.93.79-4.4.26-1.59.5-3.19.7-4.8.24-1.76.46-3.52.66-5.28.16-1.36.32-2.72.49-4.08.18-1.35.36-2.7.56-4.05.21-1.46.44-2.92.67-4.37.28-1.71.56-3.43.85-5.13.29-1.77.6-3.54.89-5.31.19-1.21.39-2.43.58-3.64.17-1.11.33-2.21.47-3.33.19-1.36.38-2.72.55-4.08.36-2.76.73-5.5,1.11-8.26.29-2.1.6-4.19.91-6.28.29-1.9.61-3.79.92-5.69.36-2.08.73-4.17,1.12-6.24.27-1.41.52-2.83.78-4.25.21-1.18.41-2.36.61-3.55.18-1.12.36-2.25.53-3.37.18-1.23.35-2.45.52-3.68.21-1.45.41-2.89.63-4.34.23-1.64.49-3.28.74-4.92.28-1.8.56-3.58.85-5.38.3-1.91.62-3.83.94-5.73.29-1.79.58-3.57.87-5.36.22-1.4.44-2.81.66-4.2.18-1.23.36-2.45.53-3.68.17-1.24.33-2.48.5-3.71.05-.41.11-.83.17-1.23.05-.33.1-.66.16-.97.05-.26.11-.51.17-.77.04-.18.1-.35.16-.53.09-.19.15-.39.18-.6.07-.3.13-.6.18-.89.07-.43.13-.84.19-1.26.09-.62.16-1.24.24-1.86.27-2.17.55-4.34.84-6.5.23-1.8.5-3.58.77-5.38.24-1.53.49-3.06.75-4.58.24-1.36.5-2.71.79-4.05.18-.9.39-1.8.6-2.68.24-1.01.5-2,.77-3,.22-.79.44-1.59.64-2.38.29,5.42.58,11.13.9,17.15-.01-1.17-.02-2.33-.02-3.5v-.63c.6,10.99,1.14,21.28,1.6,29.81l.11,2.02c.04.63.06,1.25.1,1.86l2.78,54.65c.15,3.68.27,7.34.44,11.01.21,4.58.43,9.15.66,13.73.26,5.19.53,10.37.83,15.56.34,6.04.68,12.06,1.04,18.1.06.95.11,1.91.16,2.85l3,58.63c.19,4.57.41,9.14.63,13.7.16,3.5.33,7,.51,10.5.15,2.94.32,5.88.49,8.81.15,2.49.29,4.98.44,7.46l3.16,61.83c.05,1.47.09,2.94.13,4.41.04,1.35.09,2.7.15,4.06.06,1.26.13,2.54.21,3.8.1,1.66.21,3.33.33,4.99.11,1.71.22,3.41.33,5.13.1,1.46.18,2.92.27,4.37.09,1.55.16,3.11.23,4.66.11,2.04.19,4.09.29,6.13.19,4.43.41,8.86.63,13.29.28,5.58.57,11.15.87,16.73.28,5.42.58,10.84.87,16.25.1,1.79.23,3.56.38,5.35.06.7.13,1.4.21,2.1.38,3.71.66,8.07,3.55,10.76,1.98,1.86,4.57,2.48,7.2,2.42Z"/>
      </g>
    </g>
  </g>
</svg>

