<?xml version="1.0" encoding="UTF-8"?>
<svg id="Capa_2" data-name="Capa 2" xmlns="http://www.w3.org/2000/svg" viewBox="0 0 1008.26 324.68">
  <defs>
    <style>
      .cls-1 {
        fill: #9a9a9a;
      }

      .cls-2 {
        fill: #1048a2;
      }

      .cls-3 {
        fill: #fff;
      }

      .cls-4 {
        fill: #397ab8;
      }

      .cls-5 {
        fill: #04b0e8;
      }

      .cls-6 {
        fill: #fefefe;
      }
    </style>
  </defs>
  <g id="Capa_1-2" data-name="Capa 1">
    <g>
      <g>
        <path class="cls-2" d="M391.49,312.51c-1.07,5.08-2.84,7.16-6.13,7.16-6.07,0-6.98-7.95-6.98-12.68,0-7.87,2.51-12.38,6.89-12.38,3.15,0,4.84,1.96,5.82,6.76l.17.82,5.06-.91-.16-.85c-1.37-7.22-5-10.88-10.8-10.88-7.73,0-12.34,6.53-12.34,17.48s4.48,17.61,12.3,17.61c5.82,0,9.69-3.88,11.19-11.21l.18-.86-5.03-.85-.17.8Z"/>
        <path class="cls-2" d="M415.72,312.25c0,5.23-1.67,7.46-5.59,7.46s-5.59-2.19-5.59-7.55v-22h-5.36v22.48c0,7.73,3.87,11.99,10.9,11.99s10.86-4.4,10.86-12.08v-22.39h-5.23v22.09Z"/>
        <rect class="cls-2" x="425.9" y="290.16" width="5.36" height="33.91"/>
        <path class="cls-2" d="M444.38,290.16h-7.95v33.91h7.95c9.63,0,14.52-5.72,14.52-17s-4.75-16.91-14.52-16.91M444.86,319.1h-3.06v-23.88h3.02c6.11,0,8.72,3.55,8.72,11.86s-2.59,12.03-8.68,12.03"/>
        <path class="cls-2" d="M468.54,290.03l-9.94,34.04h5.23l2.57-9.27h8.76l2.57,9.27h5.44l-9.94-34.04h-4.67ZM473.8,309.92h-6.02l1.09-3.91c.71-2.44,1.33-4.64,1.92-6.85.52,1.97,1.13,4.16,1.92,6.93l1.09,3.83Z"/>
        <path class="cls-2" d="M502.88,312.89c-.38-.76-.79-1.56-1.3-2.55l-10.33-20.18h-5.64v33.91h5.06v-24.18c.46.9.91,1.79,1.52,2.96l11.03,21.22h4.72v-33.91h-5.06v22.72Z"/>
        <path class="cls-2" d="M520.84,290.16h-7.95v33.91h7.95c9.63,0,14.52-5.72,14.52-17s-4.75-16.91-14.52-16.91M521.32,319.1h-3.06v-23.88h3.02c6.11,0,8.72,3.55,8.72,11.86s-2.59,12.03-8.68,12.03"/>
        <path class="cls-2" d="M550.17,289.55c-7.6,0-12.52,6.89-12.52,17.56s4.91,17.56,12.52,17.56,12.47-6.89,12.47-17.56-4.9-17.56-12.47-17.56M550.17,319.67c-4.48,0-7.15-4.69-7.15-12.55s2.67-12.51,7.15-12.51,7.07,4.68,7.07,12.51-2.64,12.55-7.07,12.55"/>
        <polygon class="cls-2" points="580.27 290.16 574.91 290.16 574.91 324.07 593.02 324.07 593.02 319.06 580.27 319.06 580.27 290.16"/>
        <path class="cls-2" d="M603.45,290.03l-9.94,34.04h5.22l2.57-9.27h8.76l2.57,9.27h5.44l-9.94-34.04h-4.67ZM608.71,309.92h-6.02l1.09-3.91c.71-2.44,1.34-4.64,1.93-6.85.53,1.97,1.13,4.16,1.92,6.93l1.09,3.83Z"/>
        <path class="cls-2" d="M638.99,304.63l-.22-.1c-3.63-1.79-6.01-3.19-6.01-6.24,0-2.27,1.7-3.8,4.24-3.8s4.39,1.46,5.75,4.58l.35.82,4.66-2.27-.32-.75c-1.41-3.33-4.36-7.31-10.4-7.31-5.56,0-9.6,3.73-9.6,8.86,0,6.3,4.92,8.65,8.87,10.54l.32.15c3.7,1.78,6.13,3.18,6.13,6.24,0,2.71-1.94,4.33-5.2,4.33-2.99,0-5.27-1.79-6.79-5.32l-.35-.8-4.68,2.15.33.76c2.32,5.4,6.18,8.13,11.49,8.13,6.07,0,10.47-3.93,10.47-9.34,0-6.35-5.01-8.72-9.04-10.62"/>
        <path class="cls-2" d="M658.46,290.03l-9.94,34.04h5.22l2.57-9.27h8.76l2.57,9.27h5.44l-9.94-34.04h-4.67ZM663.72,309.92h-6.02l1.09-3.91c.71-2.44,1.33-4.64,1.92-6.85.53,1.97,1.13,4.16,1.92,6.93l1.09,3.83Z"/>
        <polygon class="cls-2" points="680.89 290.16 675.53 290.16 675.53 324.07 693.64 324.07 693.64 319.06 680.89 319.06 680.89 290.16"/>
        <path class="cls-2" d="M711.47,312.25c0,5.23-1.67,7.46-5.59,7.46s-5.59-2.19-5.59-7.55v-22h-5.36v22.48c0,7.73,3.87,11.99,10.91,11.99s10.86-4.4,10.86-12.08v-22.39h-5.23v22.09Z"/>
        <path class="cls-2" d="M729.34,290.16h-7.95v33.91h7.95c9.63,0,14.52-5.72,14.52-17s-4.75-16.91-14.52-16.91M729.82,319.1h-3.06v-23.88h3.02c6.11,0,8.72,3.55,8.72,11.86s-2.59,12.03-8.68,12.03"/>
        <path class="cls-2" d="M764.07,290.16h-7.95v33.91h7.95c9.63,0,14.52-5.72,14.52-17s-4.75-16.91-14.52-16.91M764.55,319.1h-3.06v-23.88h3.02c6.11,0,8.72,3.55,8.72,11.86s-2.59,12.03-8.68,12.03"/>
        <polygon class="cls-2" points="787.55 308.71 796.91 308.71 796.91 303.7 787.55 303.7 787.55 295.22 800.35 295.22 800.35 290.16 782.19 290.16 782.19 324.07 801.09 324.07 801.09 319.06 787.55 319.06 787.55 308.71"/>
        <polygon class="cls-2" points="809.48 295.22 817.79 295.22 817.79 324.07 823.15 324.07 823.15 295.22 831.46 295.22 831.46 290.16 809.48 290.16 809.48 295.22"/>
        <path class="cls-2" d="M850.51,312.25c0,5.23-1.67,7.46-5.59,7.46s-5.59-2.19-5.59-7.55v-22h-5.36v22.48c0,7.73,3.87,11.99,10.91,11.99s10.86-4.4,10.86-12.08v-22.39h-5.23v22.09Z"/>
        <polygon class="cls-2" points="874.46 295.22 887.03 295.22 887.03 290.16 869.1 290.16 869.1 324.07 874.46 324.07 874.46 308.93 883.64 308.93 883.64 303.91 874.46 303.91 874.46 295.22"/>
        <path class="cls-2" d="M894.46,290.03l-9.94,34.04h5.22l2.57-9.27h8.76l2.57,9.27h5.44l-9.94-34.04h-4.67ZM899.72,309.92h-6.02l1.09-3.91c.71-2.44,1.33-4.64,1.92-6.85.53,1.97,1.13,4.16,1.92,6.93l1.09,3.83Z"/>
        <path class="cls-2" d="M925.12,315.28l-7.54-25.11h-6.06v33.91h4.97v-21.01c.22.77.44,1.49.64,2.12l5.71,18.88h4.14l5.71-18.79c.2-.66.42-1.38.64-2.12v20.91h5.23v-33.91h-6.06l-7.38,25.11Z"/>
        <rect class="cls-2" x="943.78" y="290.16" width="5.36" height="33.91"/>
        <polygon class="cls-2" points="959.67 290.16 954.31 290.16 954.31 324.07 972.42 324.07 972.42 319.06 959.67 319.06 959.67 290.16"/>
        <rect class="cls-2" x="975.63" y="290.16" width="5.36" height="33.91"/>
        <path class="cls-2" d="M998.32,290.03h-4.67l-9.94,34.04h5.22l2.57-9.27h8.76l2.57,9.27h5.44l-9.94-34.04ZM998.9,309.92h-6.02l1.09-3.91c.71-2.44,1.33-4.64,1.93-6.85.53,1.97,1.13,4.16,1.92,6.93l1.09,3.83Z"/>
        <path class="cls-2" d="M399.24,87.73h-27.37v178.96h25.04v-73.06h2.33c24.13,0,43.69-19.56,43.69-43.69v-18.53c0-24.13-19.56-43.69-43.69-43.69M417.89,149.4c0,10.61-8.6,19.21-19.21,19.21h-1.76v-55.87h1.76c10.61,0,19.21,8.6,19.21,19.21v17.45Z"/>
        <path class="cls-2" d="M780.86,203.17l-17.97-115.43h-30.78l-17.97,115.43-3.9,25.04-5.99,38.49h25.04l5.45-38.49h25.54l5.45,38.49h25.04l-5.99-38.49-3.9-25.04ZM738.27,203.17l9.23-65.15,9.23,65.15h-18.45Z"/>
        <rect class="cls-2" x="892.06" y="87.73" width="25.04" height="178.97"/>
        <path class="cls-2" d="M831.47,87.73h-29.17v178.96h29.17c23.1,0,41.82-18.72,41.82-41.82v-95.33c0-23.09-18.72-41.82-41.82-41.82M848.24,224.21c0,9.94-8.05,17.99-17.99,17.99h-2.92V112.22h2.92c9.93,0,17.99,8.05,17.99,17.99v94Z"/>
        <path class="cls-2" d="M527.44,146.54v-15.12c0-19.03-12.17-35.23-29.16-41.21-4.55-1.6-9.44-2.47-14.53-2.47h-27.36v178.96h25.04v-76.46h2.33c2.44,0,4.83-.2,7.16-.59l13.69,77.05h25.04l-15.73-88.54c8.34-7.96,13.53-19.18,13.53-31.61M503.2,146.81c0,9.71-7.19,17.72-16.53,19.03-.88.12-1.78.18-2.68.18h-2.57v-54.09h2.57c10.61,0,19.21,8.61,19.21,19.21v15.66Z"/>
        <path class="cls-2" d="M575.99,86.04c-19.17,0-34.71,15.54-34.71,34.71v112.26c0,19.17,15.53,34.71,34.71,34.71,9.58,0,18.26-3.89,24.54-10.16,6.28-6.29,10.16-14.96,10.16-24.55v-112.26c0-19.17-15.54-34.71-34.7-34.71M585.66,234.38c0,2.67-1.08,5.09-2.83,6.84-1.75,1.75-4.16,2.83-6.83,2.83-5.34,0-9.67-4.33-9.67-9.67v-115.01c0-5.34,4.33-9.67,9.67-9.67s9.67,4.33,9.67,9.67v115.01Z"/>
        <path class="cls-2" d="M661.75,108.47c10.53-.46,11.94,25.94,11.94,25.94l23.83-2.89s-2.44-46.56-34.05-46.56-36.34,26.72-36.34,41.07,4.89,22.9,10.53,33.89c5.65,10.99,28.17,42.67,32.67,52.77,4.17,9.36,3.87,31.77-9.97,31.77s-12.24-30.01-12.24-30.01l-24.66,3.05s-2.88,50.15,35.9,50.15,37.81-35.6,37.81-35.6c1.02-25.11-7.35-37.84-15.6-50.2-8.24-12.37-28.1-40.34-29.35-53.57-1.25-13.22,2.26-19.49,9.5-19.81"/>
        <path class="cls-2" d="M958.65,128.27c-1.25-13.22,2.26-19.49,9.5-19.81,10.53-.46,11.94,25.94,11.94,25.94l23.83-2.89s-2.44-46.56-34.05-46.56-36.33,26.72-36.33,41.07,4.89,22.9,10.53,33.89c5.65,10.99,28.17,42.67,32.67,52.77,4.17,9.36,3.87,31.77-9.97,31.77s-12.24-30.01-12.24-30.01l-24.66,3.05s-2.88,50.15,35.9,50.15,37.81-35.6,37.81-35.6c1.01-25.11-7.35-37.84-15.6-50.2-8.24-12.37-28.1-40.34-29.35-53.57"/>
        <path class="cls-2" d="M411.53,16.26s-1.72.29-3.91-.64c-1.59-.67-17.15-6.8-28.87,4.68-11.72,11.48-7.41,32.76,4.86,38.02,12.75,5.46,28.29-2.31,28.29-2.31v-4.7s-9.96,5.5-19.13,3.59c-9.17-1.91-12.04-11.56-12.04-17.53,0-8.21,2.95-19.45,15.38-19.45s12.27,7.81,12.27,7.81h3.06l.07-9.46Z"/>
        <path class="cls-2" d="M655.28,16.26s-1.72.29-3.91-.64c-1.59-.67-17.15-6.8-28.87,4.68-11.72,11.48-7.41,32.76,4.86,38.02,12.75,5.46,28.29-2.31,28.29-2.31v-4.7s-9.96,5.5-19.13,3.59c-9.17-1.91-12.04-11.56-12.04-17.53,0-8.21,2.95-19.45,15.38-19.45s12.27,7.81,12.27,7.81h3.06l.07-9.46Z"/>
        <path class="cls-2" d="M563.66,13.92v2.26l-1.61.23c-2.5.35-4.36,2.5-4.36,5.02v36.2h.1v3.11h-8.1l-2.15-3.11-2.66-3.83-18.97-27.34v26.6c0,2.6,1.97,4.78,4.55,5.05l1.51.16v2.49h-18.47v-2.49l1.5-.15c2.59-.27,4.55-2.45,4.55-5.05v-31.39c0-2.65-1.97-4.89-4.61-5.22l-1.45-.18v-2.34h12.87l2.15,3.11,21.82,31.46,1,1.44v-28.47c0-2.53-1.87-4.68-4.38-5.03l-1.77-.24v-2.26h18.47Z"/>
        <path class="cls-2" d="M490.8,20.54v33.06c0,2.29,1.73,4.22,4.02,4.45l2.04.21v2.48h-18.46v-2.48l2.04-.21c2.28-.24,4.02-2.16,4.02-4.45V20.54c0-2.29-1.73-4.22-4.02-4.45l-2.04-.21v-2.49h18.46v2.49l-2.04.21c-2.28.24-4.02,2.16-4.02,4.45"/>
        <path class="cls-2" d="M593.71,20.88v32.37c0,2.42,1.96,4.38,4.38,4.38h1.67v3.11h-18.46v-3.11h1.67c2.42,0,4.38-1.96,4.38-4.38V20.88c0-2.42-1.96-4.38-4.38-4.38h-1.67v-3.11h18.46v3.11h-1.67c-2.42,0-4.38,1.96-4.38,4.38"/>
        <path class="cls-2" d="M462.48,50.06l-2.03,10.75h0s-31.07,0-31.07,0v-2.14l1.38-.21c2.83-.44,4.91-2.87,4.91-5.73v-30.66c0-2.88-2.18-5.3-5.05-5.6l-1.01-.1v-2.48h18.47v2.48l-1.01.11c-2.87.29-5.05,2.71-5.05,5.6v32.4h13.1c2.26,0,4.34-1.23,5.42-3.21l.65-1.19h1.27Z"/>
        <rect x="557.69" y="45.98" width=".1" height="11.65"/>
        <polygon points="479.52 7.49 479.52 10.68 496.86 4.57 493.5 0 479.52 7.49"/>
        <path class="cls-2" d="M715.11,58.19c-1.27-.35-2.31-1.28-2.81-2.5l-4.99-12.2-2.09-5.12-8.9-21.78-.26-.62-1.05-2.58-4.75,2.02-.47,1.18-8.75,21.78-2.05,5.12-4.52,11.26c-.72,1.79-2.31,3.08-4.21,3.42l-2.47.44v2.22h17.8v-2.22l-3.51-.55c-1.41-.22-2.24-1.69-1.71-3.02l4.64-11.56h13.91l4.61,11.6c.52,1.31-.3,2.76-1.68,3l-3.02.52v2.22h17.79v-2.22l-1.51-.42ZM687.07,38.37l4.94-12.29,4.88,12.29h-9.81Z"/>
        <rect class="cls-2" x="557.69" y="45.98" width=".1" height="11.65"/>
        <polygon class="cls-2" points="479.52 7.49 479.52 10.68 496.86 4.57 493.5 0 479.52 7.49"/>
      </g>
      <path class="cls-1" d="M340.48,161.05c0,59.09-35.37,110.56-87.65,137.37.41-.29.82-.59,1.23-.89,0,0,0,0,.01,0,0,0,0,0,.01-.01,32.86-24.1,54.03-62.02,54.03-104.68,0-72.82-61.73-131.85-137.88-131.85S32.36,120.01,32.36,192.83c0,42.66,21.18,80.58,54.03,104.68,0,0,0,.01.01.01,0,0,.01,0,.01,0,.41.3.81.59,1.23.89C35.37,271.61,0,220.13,0,161.05,0,74.3,76.22,3.99,170.24,3.99s170.24,70.32,170.24,157.06"/>
      <path class="cls-3" d="M324.62,184.16c0,49.35-28.08,90.21-70.53,113.35,32.85-24.1,54.03-62.02,54.03-104.68,0-72.82-61.73-131.85-137.88-131.85S32.36,120.01,32.36,192.83c0,42.66,21.18,80.58,54.03,104.68-42.45-23.14-70.53-64-70.53-113.35,0-77.42,69.12-146.42,154.38-146.42s154.38,69,154.38,146.42"/>
      <path class="cls-2" d="M308.13,192.83c0,42.65-21.18,80.58-54.04,104.68,0,0,0,.01-.01.01s-.01.01-.01.01c-.41.3-.82.59-1.23.88-1.39,1-2.8,1.97-4.23,2.91.01-.27.02-.55.02-.82.01-.05.01-.1.01-.15v-110.34c0-10.25-4.15-19.51-10.87-26.23-6.71-6.71-15.99-10.87-26.24-10.87-14.69,0-27.37,8.54-33.39,20.91-2.34-19.2-18.71-34.07-38.54-34.07h-9.08c-21.44,0-38.83,17.39-38.83,38.83v122.62c-1.37-.91-2.71-1.83-4.04-2.79-.41-.29-.82-.58-1.23-.88,0,0,0-.01,0-.01s-.01-.01-.01-.01c-32.86-24.1-54.04-62.03-54.04-104.68,0-72.82,61.73-131.85,137.88-131.85s137.89,59.03,137.89,131.85Z"/>
      <path class="cls-6" d="M166.13,107.73c0,15.53-12.59,28.11-28.12,28.11s-28.11-12.58-28.11-28.11,12.58-28.12,28.11-28.12,28.12,12.59,28.12,28.12"/>
      <path class="cls-6" d="M236.34,124.01c0,13.28-10.77,24.05-24.06,24.05s-24.05-10.77-24.05-24.05,10.77-24.06,24.05-24.06,24.06,10.77,24.06,24.06"/>
      <path class="cls-6" d="M237.77,163.78c-6.71-6.71-16-10.87-26.24-10.87-14.69,0-27.37,8.54-33.4,20.91-2.34-19.2-18.7-34.07-38.54-34.07h-9.08c-21.45,0-38.83,17.38-38.83,38.83v122.62c11.4,7.58,24.07,13.55,37.62,17.57v-57.29c0-9.76,7.92-17.68,17.68-17.68s17.68,7.92,17.68,17.68v63.09c1.85.07,3.7.11,5.57.11,1.39,0,2.77-.02,4.15-.06-.49-1.92-.75-3.93-.75-6.01v-64.17c0-2.13.27-4.2.79-6.17.79-3.05,2.17-5.86,4-8.32,4.43-5.95,11.51-9.8,19.5-9.8,13.42,0,24.29,10.88,24.29,24.29v60.55c9.35-3.65,18.19-8.24,26.39-13.67.01-.27.02-.55.02-.82,0-.05,0-.1,0-.15h0c0-.21,0-.41,0-.61v-109.73c0-10.25-4.15-19.52-10.87-26.23M146.99,240.58c-7.19,0-13.02-5.83-13.02-13.02s5.83-13.01,13.02-13.01,13.01,5.82,13.01,13.01-5.82,13.02-13.01,13.02M197.93,228.17c-9.88,0-17.88-8-17.88-17.88s8-17.87,17.88-17.87,17.87,8,17.87,17.87-8,17.88-17.87,17.88"/>
      <path class="cls-5" d="M164.67,261.48v63.09c-12.27-.47-24.13-2.47-35.37-5.8v-57.29c0-9.76,7.91-17.68,17.68-17.68s17.68,7.92,17.68,17.68"/>
      <path class="cls-5" d="M160,227.56c0,7.19-5.82,13.02-13.01,13.02s-13.02-5.83-13.02-13.02,5.83-13.01,13.02-13.01,13.01,5.82,13.01,13.01"/>
      <path class="cls-4" d="M222.22,254.44v60.55c-12.14,4.73-25.13,7.85-38.7,9.08-2,.19-4.01.33-6.04.43-1.03.05-2.05.09-3.09.12-.49-1.92-.75-3.93-.75-6.01v-64.17c0-2.13.27-4.2.79-6.17.79-3.05,2.17-5.86,4-8.32,4.43-5.95,11.51-9.8,19.5-9.8,13.42,0,24.29,10.88,24.29,24.29"/>
      <path class="cls-4" d="M215.8,210.29c0,9.88-8,17.88-17.87,17.88s-17.88-8-17.88-17.88,8-17.87,17.88-17.87,17.87,8,17.87,17.87"/>
    </g>
  </g>
</svg>